<?xml version="1.0" standalone="no"?>
<!DOCTYPE svg PUBLIC "-//W3C//DTD SVG 20010904//EN"
 "http://www.w3.org/TR/2001/REC-SVG-20010904/DTD/svg10.dtd">
<svg version="1.0" xmlns="http://www.w3.org/2000/svg"
 width="192.000000pt" height="192.000000pt" viewBox="0 0 192.000000 192.000000"
 preserveAspectRatio="xMidYMid meet">
<metadata>
Created by potrace 1.11, written by Peter Selinger 2001-2013
</metadata>
<g transform="translate(0.000000,192.000000) scale(0.100000,-0.100000)"
fill="#000000" stroke="none">
<path d="M406 1781 c-42 -8 -70 -50 -61 -91 6 -26 15 -35 56 -52 49 -21 59
-34 38 -55 -13 -13 -35 -7 -60 14 -14 12 -18 10 -32 -11 -15 -22 -15 -25 5
-42 13 -12 35 -19 63 -19 107 0 135 126 35 156 -28 9 -40 18 -40 31 0 21 44
26 56 7 4 -8 12 -2 21 15 8 15 13 30 10 32 -11 11 -65 20 -91 15z"/>
<path d="M1430 1779 c-38 -8 -86 -55 -96 -94 -28 -111 103 -203 200 -140 120
79 38 264 -104 234z m81 -81 c32 -42 -2 -118 -52 -118 -30 0 -59 36 -59 74 0
65 74 94 111 44z"/>
<path d="M549 1764 c0 -11 -1 -66 -2 -124 l-1 -105 32 -3 c31 -3 32 -2 32 36
0 39 1 39 42 45 51 7 78 35 78 82 0 58 -27 79 -109 83 -64 4 -71 2 -72 -14z
m113 -57 c11 -18 -3 -37 -28 -37 -18 0 -24 5 -24 23 0 13 3 26 6 30 7 7 37 -3
46 -16z"/>
<path d="M761 1664 c-22 -64 -41 -120 -41 -125 0 -5 14 -9 31 -9 22 0 32 5 36
19 6 23 16 27 63 27 26 -1 37 -7 45 -23 9 -22 14 -23 148 -23 l138 0 -3 28
c-3 25 -6 27 -48 27 -55 1 -55 4 11 108 27 43 49 80 49 82 0 3 -45 5 -100 5
l-100 0 0 -28 c0 -27 2 -28 45 -27 25 0 45 -1 45 -3 0 -7 -24 -48 -68 -117
l-45 -70 -41 120 -41 120 -41 3 -41 3 -42 -117z m109 -29 c0 -6 -14 -12 -31
-13 -24 -2 -30 1 -26 12 3 8 11 34 18 58 l11 43 14 -45 c8 -25 14 -50 14 -55z"/>
<path d="M1220 1653 l0 -123 35 0 35 0 0 125 0 126 -35 -3 -35 -2 0 -123z"/>
<path d="M170 1470 c-26 -16 -3 -22 27 -6 23 13 24 15 8 15 -11 1 -27 -3 -35
-9z"/>
<path d="M240 1472 c0 -10 46 -10 56 1 4 4 -7 7 -24 7 -18 0 -32 -4 -32 -8z"/>
<path d="M324 1473 c10 -10 56 -11 56 -1 0 4 -14 8 -32 8 -17 0 -28 -3 -24 -7z"/>
<path d="M405 1460 c-3 -5 -3 -10 2 -10 4 0 19 -3 33 -6 24 -5 24 -5 6 10 -23
19 -32 20 -41 6z"/>
<path d="M122 1415 c-6 -13 -8 -27 -3 -29 4 -3 13 6 19 19 6 13 8 27 3 29 -4
3 -13 -6 -19 -19z"/>
<path d="M208 1431 c-7 -2 -21 -10 -30 -19 -16 -14 -18 -39 -18 -263 0 -262 5
-298 44 -300 105 -6 216 0 247 14 52 22 91 77 97 137 6 61 -1 86 -33 134 -19
28 -23 42 -16 55 13 23 16 90 6 121 -12 39 -53 88 -88 106 -29 16 -174 26
-209 15z m166 -134 c24 -17 24 -67 0 -84 -10 -7 -35 -13 -56 -13 l-38 0 0 55
0 55 38 0 c21 0 46 -6 56 -13z m47 -238 c16 -25 10 -68 -10 -79 -11 -5 -45
-10 -75 -10 l-56 0 0 56 0 56 66 -5 c41 -3 70 -10 75 -18z"/>
<path d="M310 1255 c0 -16 6 -25 16 -25 10 0 14 6 11 14 -3 7 0 19 6 25 8 8 5
11 -11 11 -17 0 -22 -6 -22 -25z"/>
<path d="M310 1025 c0 -25 23 -35 35 -15 3 6 2 10 -4 10 -6 0 -8 7 -5 15 4 9
0 15 -10 15 -10 0 -16 -9 -16 -25z"/>
<path d="M376 1041 c-4 -6 -2 -11 5 -11 8 0 8 -4 -1 -15 -9 -11 -9 -15 -1 -15
6 0 14 7 18 16 7 19 -11 41 -21 25z"/>
<path d="M477 1423 c-7 -11 30 -50 38 -41 3 3 -3 16 -13 28 -11 14 -21 19 -25
13z"/>
<path d="M854 1365 c-10 -8 -14 -15 -8 -15 5 0 19 7 30 15 10 8 14 15 8 15 -5
0 -19 -7 -30 -15z"/>
<path d="M924 1365 c11 -8 22 -12 25 -9 6 6 -19 24 -34 24 -5 -1 -1 -7 9 -15z"/>
<path d="M1345 1369 c-11 -17 0 -20 21 -4 17 13 17 14 2 15 -9 0 -20 -5 -23
-11z"/>
<path d="M1584 1366 c-10 -8 -17 -17 -14 -19 3 -3 14 1 24 9 11 7 17 16 15 19
-3 3 -14 -2 -25 -9z"/>
<path d="M1640 1370 c20 -13 43 -13 35 0 -3 6 -16 10 -28 10 -18 0 -19 -2 -7
-10z"/>
<path d="M1401 1366 c2 -2 14 -9 26 -15 19 -10 22 -9 17 4 -4 8 -15 15 -27 15
-11 0 -18 -2 -16 -4z"/>
<path d="M110 1330 c0 -16 5 -30 10 -30 6 0 10 14 10 30 0 17 -4 30 -10 30 -5
0 -10 -13 -10 -30z"/>
<path d="M520 1353 c1 -5 7 -19 15 -33 10 -18 14 -20 15 -8 0 23 -11 48 -21
48 -5 0 -9 -3 -9 -7z"/>
<path d="M1301 1331 c-6 -11 -7 -22 -2 -25 5 -3 11 4 14 16 8 30 1 35 -12 9z"/>
<path d="M817 1334 c-4 -4 -7 -17 -7 -28 1 -19 1 -20 11 -3 11 19 8 43 -4 31z"/>
<path d="M873 1332 c-12 -8 -156 -336 -182 -415 -11 -34 -11 -41 5 -58 20 -23
62 -22 76 1 4 8 17 36 29 63 l20 47 80 0 c79 0 80 0 90 -28 24 -68 44 -97 71
-100 19 -2 31 3 42 21 14 21 15 29 2 63 -34 96 -168 399 -179 406 -15 10 -39
10 -54 0z m42 -212 c19 -37 14 -49 -20 -42 -19 3 -24 9 -19 21 3 9 9 24 11 34
7 23 10 22 28 -13z"/>
<path d="M970 1330 c0 -8 5 -22 10 -30 9 -13 10 -13 10 0 0 8 -5 22 -10 30 -9
13 -10 13 -10 0z"/>
<path d="M1348 1323 c-14 -17 -99 -395 -98 -440 0 -27 33 -47 66 -39 25 7 27
12 60 161 l17 80 36 -110 c42 -130 45 -135 75 -135 34 0 49 24 86 140 l33 105
24 -109 c13 -60 28 -115 34 -123 16 -18 53 -16 71 5 19 21 19 24 -26 234 -20
92 -38 179 -40 194 -7 35 -24 54 -51 54 -33 0 -43 -17 -85 -145 -20 -64 -39
-118 -42 -120 -2 -3 -22 52 -43 121 -37 122 -51 144 -88 144 -8 0 -21 -8 -29
-17z"/>
<path d="M1702 1320 c14 -22 24 -19 15 5 -4 8 -11 15 -17 15 -6 0 -6 -7 2 -20z"/>
<path d="M1450 1324 c0 -5 7 -19 15 -30 8 -10 15 -14 15 -8 0 5 -7 19 -15 30
-8 10 -15 14 -15 8z"/>
<path d="M1547 1317 c-11 -29 -9 -43 4 -30 6 6 9 19 7 29 -3 18 -4 18 -11 1z"/>
<path d="M547 1273 c-11 -10 -8 -43 3 -43 6 0 10 11 10 25 0 26 -2 29 -13 18z"/>
<path d="M1287 1273 c-4 -3 -7 -15 -7 -26 0 -25 13 -14 17 13 3 21 1 24 -10
13z"/>
<path d="M1718 1274 c-3 -5 -2 -18 2 -28 3 -11 9 -15 12 -10 3 5 2 18 -2 28
-3 11 -9 15 -12 10z"/>
<path d="M110 1245 c0 -14 5 -25 10 -25 6 0 10 11 10 25 0 14 -4 25 -10 25 -5
0 -10 -11 -10 -25z"/>
<path d="M786 1254 c-10 -25 1 -29 14 -5 6 12 7 21 1 21 -5 0 -12 -7 -15 -16z"/>
<path d="M990 1261 c0 -5 7 -14 15 -21 16 -14 18 -10 9 14 -6 17 -24 22 -24 7z"/>
<path d="M1477 1240 c3 -11 10 -23 16 -27 7 -4 8 0 4 11 -4 10 -7 22 -7 27 0
5 -4 9 -9 9 -5 0 -7 -9 -4 -20z"/>
<path d="M1527 1254 c-4 -4 -7 -17 -7 -28 1 -19 1 -20 11 -3 11 19 8 43 -4 31z"/>
<path d="M760 1201 c0 -5 -3 -18 -6 -28 -5 -16 -4 -16 10 1 18 23 20 36 6 36
-5 0 -10 -4 -10 -9z"/>
<path d="M1020 1205 c0 -15 18 -40 24 -34 3 3 -1 14 -9 25 -8 10 -14 15 -15 9z"/>
<path d="M1267 1190 c-3 -11 -1 -23 4 -26 5 -3 9 -1 9 5 0 5 3 16 6 25 3 9 2
16 -4 16 -5 0 -12 -9 -15 -20z"/>
<path d="M1730 1200 c0 -8 5 -22 10 -30 9 -13 10 -13 10 0 0 8 -5 22 -10 30
-9 13 -10 13 -10 0z"/>
<path d="M532 1178 c2 -12 8 -23 14 -25 7 -2 10 6 7 22 -6 30 -26 34 -21 3z"/>
<path d="M1500 1180 c0 -19 3 -21 12 -12 9 9 9 15 0 24 -9 9 -12 7 -12 -12z"/>
<path d="M112 1165 c-1 -14 3 -25 8 -25 6 0 10 11 10 25 0 14 -4 25 -8 25 -4
0 -9 -11 -10 -25z"/>
<path d="M727 1120 c-3 -11 -1 -20 4 -20 5 0 9 2 9 4 0 2 3 11 6 20 3 9 2 16
-4 16 -5 0 -12 -9 -15 -20z"/>
<path d="M1050 1135 c0 -15 18 -40 24 -34 3 3 -1 14 -9 25 -8 10 -14 15 -15 9z"/>
<path d="M1258 1134 c-5 -4 -8 -16 -8 -28 0 -14 3 -17 11 -9 6 6 9 19 7 28 -1
9 -6 13 -10 9z"/>
<path d="M1747 1120 c3 -11 9 -20 13 -20 5 0 6 9 3 20 -3 11 -9 20 -13 20 -5
0 -6 -9 -3 -20z"/>
<path d="M568 1124 c-3 -5 -1 -20 5 -34 8 -20 11 -22 14 -8 5 20 -12 55 -19
42z"/>
<path d="M118 1104 c-5 -4 -8 -19 -8 -33 0 -18 3 -22 11 -14 6 6 9 21 7 33 -1
12 -6 18 -10 14z"/>
<path d="M705 1060 c-4 -12 -5 -24 -2 -27 3 -2 8 5 12 17 4 12 5 24 2 27 -3 2
-8 -5 -12 -17z"/>
<path d="M1081 1063 c-1 -12 4 -25 9 -28 12 -7 12 2 0 30 -8 19 -9 19 -9 -2z"/>
<path d="M1237 1050 c-3 -11 -1 -20 4 -20 5 0 9 2 9 4 0 2 3 11 6 20 3 9 2 16
-4 16 -5 0 -12 -9 -15 -20z"/>
<path d="M1760 1056 c0 -8 5 -18 10 -21 6 -3 10 1 10 9 0 8 -4 18 -10 21 -5 3
-10 -1 -10 -9z"/>
<path d="M582 1020 c0 -17 4 -28 9 -25 11 8 12 55 1 55 -5 0 -9 -14 -10 -30z"/>
<path d="M119 1028 c-7 -15 -6 -58 2 -58 5 0 9 14 9 30 0 25 -6 39 -11 28z"/>
<path d="M676 994 c-8 -21 -8 -24 3 -24 5 0 11 9 14 20 6 24 -8 27 -17 4z"/>
<path d="M1107 990 c3 -11 9 -20 14 -20 11 0 11 3 3 24 -9 23 -23 20 -17 -4z"/>
<path d="M1229 998 c-6 -21 -5 -38 2 -38 5 0 9 9 9 20 0 16 -7 28 -11 18z"/>
<path d="M1774 984 c3 -9 6 -18 6 -20 0 -3 4 -3 10 1 11 7 2 35 -12 35 -6 0
-7 -7 -4 -16z"/>
<path d="M571 952 c-7 -13 -11 -28 -8 -35 2 -7 9 -2 16 11 7 13 11 28 8 35 -2
7 -9 2 -16 -11z"/>
<path d="M1390 945 c0 -8 5 -15 10 -15 6 0 10 7 10 15 0 8 -4 15 -10 15 -5 0
-10 -7 -10 -15z"/>
<path d="M1606 952 c-3 -6 -1 -14 5 -17 15 -10 25 3 12 16 -7 7 -13 7 -17 1z"/>
<path d="M116 927 c-5 -15 -6 -31 -2 -34 11 -11 18 5 14 34 l-4 28 -8 -28z"/>
<path d="M650 930 c-6 -12 -9 -24 -7 -27 3 -2 11 5 17 17 6 12 9 24 7 27 -3 2
-11 -5 -17 -17z"/>
<path d="M840 940 c-20 -12 -5 -24 16 -12 9 5 12 12 7 15 -5 3 -15 2 -23 -3z"/>
<path d="M880 939 c0 -5 10 -9 22 -9 12 0 18 3 14 7 -10 11 -36 12 -36 2z"/>
<path d="M935 940 c-4 -6 -4 -10 -1 -10 2 0 11 -3 20 -6 9 -3 16 -2 16 4 0 14
-28 23 -35 12z"/>
<path d="M1131 945 c1 -22 16 -48 22 -38 3 5 0 19 -8 29 -8 10 -14 15 -14 9z"/>
<path d="M1791 918 c-1 -16 4 -28 9 -28 12 0 12 8 0 35 -8 18 -9 17 -9 -7z"/>
<path d="M1211 903 c0 -25 1 -26 9 -8 12 27 12 35 0 35 -5 0 -10 -12 -9 -27z"/>
<path d="M1410 903 c0 -12 5 -25 10 -28 13 -8 13 15 0 35 -8 12 -10 11 -10 -7z"/>
<path d="M1380 901 c0 -5 -3 -17 -7 -27 -4 -11 -3 -15 4 -11 14 9 24 47 12 47
-5 0 -9 -4 -9 -9z"/>
<path d="M1587 890 c-3 -11 -2 -20 3 -20 4 0 10 9 13 20 3 11 2 20 -3 20 -4 0
-10 -9 -13 -20z"/>
<path d="M1621 903 c0 -5 4 -17 9 -28 8 -18 9 -17 9 8 1 15 -3 27 -9 27 -5 0
-10 -3 -9 -7z"/>
<path d="M527 882 c-19 -21 -22 -32 -7 -32 10 0 34 39 27 46 -2 2 -11 -4 -20
-14z"/>
<path d="M811 882 c-13 -25 -14 -32 -2 -32 9 0 23 41 16 48 -2 2 -8 -5 -14
-16z"/>
<path d="M970 891 c0 -17 12 -41 20 -41 10 0 1 38 -11 46 -5 3 -9 1 -9 -5z"/>
<path d="M647 860 c3 -11 10 -23 16 -27 7 -4 8 0 4 11 -4 10 -7 22 -7 27 0 5
-4 9 -9 9 -5 0 -7 -9 -4 -20z"/>
<path d="M1135 859 c-10 -30 0 -33 13 -4 6 14 7 25 2 25 -5 0 -12 -9 -15 -21z"/>
<path d="M130 859 c0 -16 27 -46 35 -38 2 2 -5 15 -15 29 -15 19 -20 21 -20 9z"/>
<path d="M1780 850 c-6 -12 -9 -24 -7 -27 3 -2 11 5 17 17 6 12 9 24 7 27 -3
2 -11 -5 -17 -17z"/>
<path d="M1220 854 c0 -17 17 -36 24 -26 3 5 -1 15 -9 22 -8 7 -15 9 -15 4z"/>
<path d="M1345 830 c-10 -11 -13 -20 -8 -20 13 0 38 29 31 35 -3 3 -13 -4 -23
-15z"/>
<path d="M1436 836 c5 -14 34 -31 34 -20 0 7 -27 34 -34 34 -3 0 -3 -6 0 -14z"/>
<path d="M1560 835 c-20 -24 -6 -28 15 -5 10 11 13 20 8 20 -6 0 -16 -7 -23
-15z"/>
<path d="M1650 830 c6 -11 15 -20 20 -20 17 0 11 15 -11 28 -19 12 -19 11 -9
-8z"/>
<path d="M458 833 c-19 -5 -25 -23 -9 -23 17 0 41 12 41 21 0 9 -4 10 -32 2z"/>
<path d="M686 821 c-3 -5 4 -11 16 -14 30 -8 35 -1 9 12 -11 6 -22 7 -25 2z"/>
<path d="M761 821 c-7 -5 -9 -11 -4 -14 4 -3 17 1 28 9 21 16 0 20 -24 5z"/>
<path d="M1015 816 c11 -8 24 -12 28 -9 11 7 -12 23 -32 23 -11 0 -9 -4 4 -14z"/>
<path d="M1084 815 c-17 -13 -17 -14 -2 -15 9 0 20 5 23 11 11 17 0 20 -21 4z"/>
<path d="M190 809 c0 -5 14 -9 32 -9 36 0 31 12 -7 16 -14 1 -25 -2 -25 -7z"/>
<path d="M282 811 c-10 -6 -7 -10 12 -13 30 -6 45 7 20 16 -19 7 -16 8 -32 -3z"/>
<path d="M354 808 c-3 -4 9 -8 25 -8 17 0 31 4 31 8 0 4 -12 8 -26 8 -14 0
-28 -4 -30 -8z"/>
<path d="M1270 810 c0 -5 10 -10 23 -10 18 0 19 2 7 10 -19 13 -30 13 -30 0z"/>
<path d="M1715 810 c-18 -8 -17 -9 8 -9 15 -1 27 4 27 9 0 12 -8 12 -35 0z"/>
<path d="M1493 803 c9 -2 23 -2 30 0 6 3 -1 5 -18 5 -16 0 -22 -2 -12 -5z"/>
<path d="M293 743 c-7 -2 -13 -8 -13 -13 0 -10 38 -1 46 11 6 10 -13 11 -33 2z"/>
<path d="M354 741 c3 -5 15 -7 26 -4 28 7 25 13 -6 13 -14 0 -23 -4 -20 -9z"/>
<path d="M422 745 c10 -11 48 -14 48 -4 0 5 -12 9 -27 9 -14 0 -24 -2 -21 -5z"/>
<path d="M506 725 c25 -19 40 -19 24 0 -7 8 -20 15 -28 15 -13 0 -12 -3 4 -15z"/>
<path d="M1023 723 c-21 -8 -15 -22 7 -16 11 3 20 9 20 14 0 10 -8 10 -27 2z"/>
<path d="M1080 721 c0 -5 7 -12 16 -15 24 -9 28 -7 14 9 -14 17 -30 20 -30 6z"/>
<path d="M1340 722 c0 -4 9 -8 20 -9 11 -1 20 2 20 8 0 5 -9 9 -20 9 -11 0
-20 -4 -20 -8z"/>
<path d="M240 690 c-9 -16 -8 -20 5 -20 8 0 15 9 15 20 0 11 -2 20 -5 20 -2 0
-9 -9 -15 -20z"/>
<path d="M296 694 c-18 -18 -18 -10 -18 -276 0 -144 3 -202 12 -213 10 -12 36
-15 114 -15 111 0 154 14 189 61 40 55 37 151 -5 196 -18 20 -20 27 -10 48 30
65 -3 157 -67 193 -49 28 -190 32 -215 6z m171 -106 c34 -45 9 -88 -49 -84
-32 2 -33 4 -36 49 l-3 47 39 0 c22 0 44 -6 49 -12z m41 -212 c12 -12 14 -22
6 -43 -9 -26 -14 -28 -72 -31 l-62 -3 0 44 c0 24 2 46 5 48 12 12 108 1 123
-15z"/>
<path d="M410 550 c0 -11 6 -20 14 -20 9 0 14 9 13 20 -1 11 -7 20 -14 20 -7
0 -13 -9 -13 -20z"/>
<path d="M410 348 c0 -15 6 -25 15 -25 9 0 13 8 11 21 -4 29 -26 32 -26 4z"/>
<path d="M473 357 c3 -9 1 -18 -6 -21 -7 -2 -4 -5 6 -5 19 -1 23 24 5 35 -7 5
-9 2 -5 -9z"/>
<path d="M1286 695 c-3 -8 -2 -15 3 -15 5 0 14 7 21 15 10 12 10 15 -3 15 -8
0 -17 -7 -21 -15z"/>
<path d="M1410 690 c6 -11 15 -20 21 -20 6 0 6 7 -1 20 -6 11 -15 20 -21 20
-6 0 -6 -7 1 -20z"/>
<path d="M565 680 c10 -11 20 -18 23 -15 7 6 -18 35 -31 35 -5 0 -2 -9 8 -20z"/>
<path d="M980 671 c-6 -12 -7 -21 -1 -21 10 0 24 30 17 37 -2 3 -9 -5 -16 -16z"/>
<path d="M1030 670 c-18 -18 -19 -34 -20 -225 0 -227 6 -255 50 -255 47 0 54
20 54 156 0 68 3 124 6 123 3 0 51 -63 107 -140 84 -114 107 -139 128 -139 47
0 53 25 51 258 -1 199 -3 215 -21 228 -10 8 -26 14 -36 14 -35 0 -43 -28 -44
-156 0 -68 -3 -124 -6 -124 -3 0 -46 55 -95 122 -126 173 -133 179 -174 138z"/>
<path d="M1142 660 c14 -22 24 -19 15 5 -4 8 -11 15 -17 15 -6 0 -6 -7 2 -20z"/>
<path d="M1265 650 c-3 -5 -1 -18 4 -27 9 -16 10 -14 11 10 0 28 -5 34 -15 17z"/>
<path d="M1437 643 c-10 -9 -9 -43 1 -43 4 0 9 11 10 25 2 26 0 29 -11 18z"/>
<path d="M239 638 c-6 -21 -5 -39 2 -44 5 -3 9 6 9 20 0 21 -7 36 -11 24z"/>
<path d="M601 635 c1 -22 16 -48 22 -38 3 5 0 19 -8 29 -8 10 -14 15 -14 9z"/>
<path d="M1180 610 c6 -11 15 -20 20 -20 6 0 5 9 -2 20 -7 11 -16 20 -21 20
-4 0 -3 -9 3 -20z"/>
<path d="M970 600 c0 -11 5 -20 10 -20 6 0 10 9 10 20 0 11 -4 20 -10 20 -5 0
-10 -9 -10 -20z"/>
<path d="M790 590 c-18 -12 -2 -12 25 0 13 6 15 9 5 9 -8 0 -22 -4 -30 -9z"/>
<path d="M1560 590 c-12 -8 -11 -10 8 -10 12 0 22 5 22 10 0 13 -11 13 -30 0z"/>
<path d="M850 585 c0 -2 10 -10 23 -16 20 -11 21 -11 8 4 -13 16 -31 23 -31
12z"/>
<path d="M1267 583 c-3 -5 -1 -17 4 -28 7 -17 8 -17 8 8 1 27 -4 34 -12 20z"/>
<path d="M1636 576 c10 -8 21 -12 24 -10 5 6 -21 24 -34 24 -6 0 -1 -6 10 -14z"/>
<path d="M1430 555 c0 -15 4 -24 10 -20 6 3 10 12 10 20 0 8 -4 17 -10 20 -6
4 -10 -5 -10 -20z"/>
<path d="M233 550 c-1 -11 2 -22 8 -25 5 -4 9 5 9 19 0 30 -15 35 -17 6z"/>
<path d="M611 563 c0 -5 4 -17 9 -28 8 -18 9 -17 9 8 1 15 -3 27 -9 27 -5 0
-10 -3 -9 -7z"/>
<path d="M745 559 c-11 -17 1 -21 15 -4 8 9 8 15 2 15 -6 0 -14 -5 -17 -11z"/>
<path d="M792 554 c-21 -15 -22 -21 -22 -179 0 -135 3 -166 16 -179 19 -19 58
-21 72 -3 9 10 18 251 13 327 -3 40 -45 58 -79 34z"/>
<path d="M1222 550 c13 -20 28 -27 28 -12 0 10 -22 32 -32 32 -5 0 -3 -9 4
-20z"/>
<path d="M1515 559 c-11 -17 1 -21 15 -4 8 9 8 15 2 15 -6 0 -14 -5 -17 -11z"/>
<path d="M1574 559 c-12 -4 -23 -13 -26 -21 -3 -7 -5 -86 -4 -176 1 -174 3
-181 53 -182 45 0 49 16 48 191 0 90 -4 169 -8 175 -10 16 -39 22 -63 13z"/>
<path d="M890 543 c0 -5 5 -15 10 -23 8 -12 10 -11 10 8 0 12 -4 22 -10 22 -5
0 -10 -3 -10 -7z"/>
<path d="M970 530 c0 -11 4 -20 9 -20 6 0 9 9 8 20 -1 11 -5 20 -9 20 -4 0 -8
-9 -8 -20z"/>
<path d="M1670 534 c0 -8 5 -12 10 -9 6 4 8 11 5 16 -9 14 -15 11 -15 -7z"/>
<path d="M730 504 c0 -8 5 -12 10 -9 6 3 10 10 10 16 0 5 -4 9 -10 9 -5 0 -10
-7 -10 -16z"/>
<path d="M1260 505 c0 -8 5 -15 10 -15 6 0 10 7 10 15 0 8 -4 15 -10 15 -5 0
-10 -7 -10 -15z"/>
<path d="M1506 511 c-4 -7 -5 -15 -2 -18 9 -9 19 4 14 18 -4 11 -6 11 -12 0z"/>
<path d="M1430 484 c0 -14 4 -23 10 -19 6 3 10 15 10 26 0 10 -4 19 -10 19 -5
0 -10 -12 -10 -26z"/>
<path d="M239 493 c0 -5 -2 -16 -4 -25 -2 -10 1 -20 6 -24 5 -3 9 9 9 25 0 17
-2 31 -5 31 -3 0 -5 -3 -6 -7z"/>
<path d="M606 491 c-5 -7 -3 -18 3 -24 14 -14 20 -6 11 17 -5 15 -9 16 -14 7z"/>
<path d="M900 479 c0 -11 4 -18 10 -14 5 3 7 12 3 20 -7 21 -13 19 -13 -6z"/>
<path d="M1670 480 c0 -19 3 -21 12 -12 9 9 9 15 0 24 -9 9 -12 7 -12 -12z"/>
<path d="M970 459 c0 -11 5 -17 10 -14 6 3 10 13 10 21 0 8 -4 14 -10 14 -5 0
-10 -9 -10 -21z"/>
<path d="M730 455 c0 -8 4 -15 8 -15 5 0 9 7 9 15 0 8 -4 15 -9 15 -4 0 -8 -7
-8 -15z"/>
<path d="M1504 455 c4 -24 16 -30 16 -7 0 12 -4 22 -9 22 -5 0 -8 -7 -7 -15z"/>
<path d="M638 415 c2 -14 9 -25 14 -25 6 0 7 7 4 16 -3 9 -6 20 -6 25 0 5 -4
9 -9 9 -4 0 -6 -11 -3 -25z"/>
<path d="M900 424 c0 -8 5 -12 10 -9 6 4 8 11 5 16 -9 14 -15 11 -15 -7z"/>
<path d="M1430 414 c0 -14 4 -23 9 -19 11 6 10 45 -1 45 -4 0 -8 -12 -8 -26z"/>
<path d="M1670 425 c0 -8 4 -15 8 -15 5 0 9 7 9 15 0 8 -4 15 -9 15 -4 0 -8
-7 -8 -15z"/>
<path d="M233 400 c-1 -11 2 -22 8 -25 5 -4 9 5 9 19 0 30 -15 35 -17 6z"/>
<path d="M730 400 c0 -19 3 -21 12 -12 9 9 9 15 0 24 -9 9 -12 7 -12 -12z"/>
<path d="M1507 413 c-10 -9 -9 -33 1 -33 4 0 8 9 9 20 2 21 0 24 -10 13z"/>
<path d="M970 383 c0 -22 2 -25 10 -13 13 20 13 40 0 40 -5 0 -10 -12 -10 -27z"/>
<path d="M900 371 c0 -25 6 -27 13 -6 4 8 2 17 -3 20 -6 4 -10 -3 -10 -14z"/>
<path d="M1140 376 c0 -9 5 -16 10 -16 6 0 10 4 10 9 0 6 -4 13 -10 16 -5 3
-10 -1 -10 -9z"/>
<path d="M1670 368 c0 -12 3 -18 7 -14 11 10 12 36 2 36 -5 0 -9 -10 -9 -22z"/>
<path d="M650 346 c0 -15 4 -25 9 -22 10 7 9 31 -2 42 -4 4 -7 -5 -7 -20z"/>
<path d="M1430 351 c0 -29 15 -33 18 -5 1 13 -3 24 -8 24 -6 0 -10 -9 -10 -19z"/>
<path d="M730 344 c0 -8 5 -12 10 -9 6 3 10 10 10 16 0 5 -4 9 -10 9 -5 0 -10
-7 -10 -16z"/>
<path d="M1506 351 c-4 -7 -5 -15 -2 -18 9 -9 19 4 14 18 -4 11 -6 11 -12 0z"/>
<path d="M236 333 c-4 -9 -2 -21 4 -27 7 -7 10 -2 10 17 0 31 -5 34 -14 10z"/>
<path d="M1171 345 c0 -14 28 -50 34 -43 3 3 -3 16 -14 29 -11 13 -20 20 -20
14z"/>
<path d="M900 319 c0 -11 4 -18 10 -14 5 3 7 12 3 20 -7 21 -13 19 -13 -6z"/>
<path d="M973 320 c1 -11 5 -20 9 -20 3 0 6 9 5 20 -1 11 -5 20 -9 20 -3 0 -6
-9 -5 -20z"/>
<path d="M1670 320 c0 -19 3 -21 12 -12 9 9 9 15 0 24 -9 9 -12 7 -12 -12z"/>
<path d="M1140 310 c0 -11 4 -20 8 -20 4 0 8 9 9 20 1 11 -2 20 -8 20 -5 0 -9
-9 -9 -20z"/>
<path d="M730 290 c0 -19 3 -21 12 -12 9 9 9 15 0 24 -9 9 -12 7 -12 -12z"/>
<path d="M1500 290 c0 -19 3 -21 12 -12 9 9 9 15 0 24 -9 9 -12 7 -12 -12z"/>
<path d="M1430 273 c0 -29 12 -24 17 7 2 11 -2 20 -7 20 -6 0 -10 -12 -10 -27z"/>
<path d="M636 274 c-8 -21 -8 -24 3 -24 5 0 11 9 14 20 6 24 -8 27 -17 4z"/>
<path d="M1220 270 c6 -11 15 -20 20 -20 6 0 5 9 -2 20 -7 11 -16 20 -21 20
-4 0 -3 -9 3 -20z"/>
<path d="M239 278 c-6 -21 -5 -39 2 -44 5 -3 9 6 9 20 0 21 -7 36 -11 24z"/>
<path d="M900 260 c0 -11 2 -20 4 -20 2 0 6 9 9 20 3 11 1 20 -4 20 -5 0 -9
-9 -9 -20z"/>
<path d="M1670 265 c0 -8 4 -15 8 -15 5 0 9 7 9 15 0 8 -4 15 -9 15 -4 0 -8
-7 -8 -15z"/>
<path d="M970 250 c0 -11 5 -20 10 -20 6 0 10 9 10 20 0 11 -4 20 -10 20 -5 0
-10 -9 -10 -20z"/>
<path d="M1140 240 c0 -11 4 -20 8 -20 4 0 8 9 8 20 0 11 -4 20 -8 20 -4 0 -8
-9 -8 -20z"/>
<path d="M730 235 c0 -8 5 -15 10 -15 6 0 10 7 10 15 0 8 -4 15 -10 15 -5 0
-10 -7 -10 -15z"/>
<path d="M1500 241 c0 -6 5 -13 10 -16 6 -3 10 1 10 9 0 9 -4 16 -10 16 -5 0
-10 -4 -10 -9z"/>
<path d="M600 215 c-20 -24 -6 -28 15 -5 10 11 13 20 8 20 -6 0 -16 -7 -23
-15z"/>
<path d="M897 215 c-4 -8 -2 -17 3 -20 6 -4 10 3 10 14 0 25 -6 27 -13 6z"/>
<path d="M1262 210 c13 -20 28 -27 28 -12 0 10 -22 32 -32 32 -5 0 -3 -9 4
-20z"/>
<path d="M1426 214 c-8 -21 -8 -24 3 -24 5 0 11 9 14 20 6 24 -8 27 -17 4z"/>
<path d="M1670 211 c0 -25 6 -27 13 -6 4 8 2 17 -3 20 -6 4 -10 -3 -10 -14z"/>
<path d="M250 199 c0 -9 7 -22 15 -29 19 -16 19 0 0 26 -12 16 -14 16 -15 3z"/>
<path d="M986 202 c-3 -5 1 -15 9 -22 21 -17 27 -9 10 13 -7 10 -16 14 -19 9z"/>
<path d="M740 192 c0 -12 19 -26 26 -19 2 2 -2 10 -11 17 -9 8 -15 8 -15 2z"/>
<path d="M1115 180 c-10 -11 -13 -20 -8 -20 13 0 38 29 31 35 -3 3 -13 -4 -23
-15z"/>
<path d="M1510 192 c0 -12 19 -26 26 -19 2 2 -2 10 -11 17 -9 8 -15 8 -15 2z"/>
<path d="M530 170 c-12 -8 -11 -10 7 -10 12 0 25 5 28 10 8 13 -15 13 -35 0z"/>
<path d="M860 165 c-7 -8 -8 -15 -2 -15 5 0 15 7 22 15 7 8 8 15 2 15 -5 0
-15 -7 -22 -15z"/>
<path d="M1300 170 c0 -7 24 -20 36 -20 13 0 1 19 -16 23 -11 3 -20 2 -20 -3z"/>
<path d="M1640 170 c-8 -5 -12 -11 -9 -14 2 -3 11 -1 19 4 8 5 12 11 9 14 -2
3 -11 1 -19 -4z"/>
<path d="M1034 159 c-3 -5 6 -9 20 -9 31 0 34 6 6 13 -11 3 -23 1 -26 -4z"/>
<path d="M1370 160 c-13 -9 -13 -10 0 -10 8 0 22 5 30 10 13 9 13 10 0 10 -8
0 -22 -5 -30 -10z"/>
<path d="M1558 158 c6 -6 18 -8 28 -6 14 3 12 5 -9 10 -19 3 -25 2 -19 -4z"/>
<path d="M300 156 c0 -9 40 -13 46 -5 3 5 -6 9 -20 9 -14 0 -26 -2 -26 -4z"/>
<path d="M383 153 c9 -2 25 -2 35 0 9 3 1 5 -18 5 -19 0 -27 -2 -17 -5z"/>
<path d="M450 153 c0 -5 11 -8 25 -8 14 0 25 3 25 8 0 4 -11 7 -25 7 -14 0
-25 -3 -25 -7z"/>
<path d="M793 153 c9 -2 23 -2 30 0 6 3 -1 5 -18 5 -16 0 -22 -2 -12 -5z"/>
</g>
</svg>
