<?xml version="1.0" encoding="UTF-8"?>
<!DOCTYPE svg PUBLIC "-//W3C//DTD SVG 1.1//EN" "http://www.w3.org/Graphics/SVG/1.1/DTD/svg11.dtd">
<!-- Creator: CorelDRAW X7 -->
<svg xmlns="http://www.w3.org/2000/svg" xml:space="preserve" width="32mm" height="9mm" version="1.1" style="shape-rendering:geometricPrecision; text-rendering:geometricPrecision; image-rendering:optimizeQuality; fill-rule:evenodd; clip-rule:evenodd"
viewBox="0 0 3200 900"
 xmlns:xlink="http://www.w3.org/1999/xlink">
 <defs>
  <style type="text/css">
   <![CDATA[
    .fil3 {fill:#009FE0}
    .fil0 {fill:#911F7F}
    .fil2 {fill:#94B947}
    .fil6 {fill:#EB6365}
    .fil1 {fill:#F05C06}
    .fil5 {fill:#F0BD00}
    .fil8 {fill:#FAFDFD}
    .fil7 {fill:#FDFDFD}
    .fil4 {fill:#71329A;fill-rule:nonzero}
   ]]>
  </style>
 </defs>
 <g id="Camada_x0020_1">
  <metadata id="CorelCorpID_0Corel-Layer"/>
  <g id="_1612094464352">
   <g>
    <g id="A">
     <path class="fil0" d="M873 736c-3,0 -5,-1 -7,-4l-6 -10 -12 1c-4,1 -8,-2 -8,-6 -1,-4 2,-7 6,-8l17 -2c3,0 5,1 7,4l8 14c2,4 1,8 -2,10 -1,0 -2,1 -3,1z"/>
     <path class="fil0" d="M823 726l-25 3c-4,1 -7,-2 -8,-6 0,-4 2,-7 6,-8l25 -3c4,0 8,2 8,6 1,4 -2,8 -6,8z"/>
     <path class="fil0" d="M752 751c-1,0 -2,0 -3,0 -4,-1 -6,-5 -5,-9l5 -16c0,-3 3,-5 6,-5l16 -3c4,0 8,3 8,7 1,3 -2,7 -6,7l-12 2 -3 12c-1,3 -4,5 -6,5z"/>
     <path class="fil0" d="M807 319c-1,0 -3,0 -4,-1 -9,-5 -19,-9 -29,-9 -4,-1 -7,-4 -7,-8 0,-4 4,-7 8,-7 12,2 24,5 35,11 3,2 5,7 3,10 -1,2 -3,3 -6,4zm-94 12c-2,0 -5,-1 -6,-2 -3,-3 -3,-8 0,-10 9,-9 20,-16 31,-20 4,-1 8,1 9,4 2,4 0,8 -4,9 -10,4 -19,9 -26,17 -1,1 -3,2 -4,2zm137 39c-2,1 -5,-1 -7,-3l-12 -21c-1,-3 -3,-5 -5,-8 -2,-3 -2,-7 2,-10 3,-2 7,-1 10,2 2,3 4,6 6,9l12 21c2,3 0,7 -3,9 -1,1 -2,1 -3,1zm-166 21c-1,1 -2,1 -3,0 -3,-1 -6,-5 -5,-9l7 -23c1,-3 2,-7 3,-10 2,-4 6,-5 10,-4 3,2 5,6 4,9 -2,3 -2,6 -3,9l-7 23c-1,3 -3,5 -6,5zm200 38c-2,1 -5,-1 -7,-3l-17 -30c-2,-3 0,-7 3,-9 3,-2 8,-1 10,2l17 30c2,3 0,7 -3,9 -1,1 -2,1 -3,1zm-218 28c-1,0 -2,0 -3,0 -4,-1 -6,-5 -5,-9l9 -33c1,-3 5,-6 9,-5 4,2 6,5 5,9l-10 33c0,3 -3,5 -5,5zm252 31c-2,1 -5,-1 -7,-3l-17 -30c-2,-3 0,-7 3,-9 3,-2 8,-1 10,2l17 30c2,3 1,8 -3,10 -1,0 -2,0 -3,0zm-271 35c-1,0 -2,0 -3,0 -4,-2 -6,-5 -5,-9l10 -33c1,-4 5,-6 8,-5 4,1 6,5 5,9l-9 33c-1,2 -3,4 -6,5zm306 25c-3,0 -6,-1 -7,-4l-17 -30c-2,-3 -1,-7 2,-9 3,-2 8,-1 10,2l17 30c2,3 1,8 -3,10 -1,0 -2,0 -2,1zm-325 40c-1,0 -1,0 -2,0 -4,-1 -6,-5 -5,-9l9 -32c1,-4 5,-6 9,-5 3,1 6,5 5,8l-10 33c0,3 -3,5 -6,5zm359 19c-3,0 -6,-1 -7,-4l-17 -29c-2,-4 -1,-8 2,-10 4,-2 8,-1 10,2l17 30c2,3 1,8 -3,10 -1,0 -1,0 -2,1zm-377 47c-1,0 -2,0 -3,0 -4,-1 -6,-5 -5,-9l9 -33c1,-4 5,-6 9,-5 4,1 6,5 5,9l-9 33c-1,3 -3,5 -6,5zm411 12c-3,0 -6,-1 -7,-4l-17 -29c-2,-4 -1,-8 2,-10 4,-2 8,-1 10,3l17 29c2,3 1,8 -3,10 0,0 -1,1 -2,1zm-430 54c-1,0 -2,0 -3,-1 -3,-1 -6,-5 -4,-8l9 -33c1,-4 5,-6 9,-5 3,1 6,5 4,9l-9 33c-1,2 -3,4 -6,5zm462 6c-3,0 -6,-2 -8,-5 -1,-6 -3,-11 -6,-15l-8 -14c-2,-4 -1,-8 2,-10 4,-2 8,-1 10,3l8 14c3,5 6,11 8,17 1,4 -1,8 -5,9 0,0 0,1 -1,1zm-478 60c-1,0 -1,0 -2,0 -4,0 -6,-4 -6,-8 0,-6 1,-13 3,-20l4 -14c1,-4 5,-6 9,-5 4,1 6,5 5,8l-4 15c-2,6 -3,11 -3,17 0,4 -3,6 -6,7zm158 31c-1,0 -2,0 -3,-1 -4,-1 -6,-5 -5,-9l10 -32c1,-4 5,-6 8,-5 4,1 6,5 5,9l-9 33c-1,2 -3,4 -6,5zm175 -22c-3,1 -6,-1 -7,-3 -1,-1 -1,-1 -1,-2l-17 -28c-1,-3 0,-7 3,-9 3,-2 8,-1 10,2l17 30c2,3 1,7 -3,9 -1,1 -2,1 -2,1zm139 -3c-1,0 -2,0 -4,-1 -3,-2 -5,-6 -3,-10 5,-9 8,-19 9,-29 0,-4 4,-7 8,-7 4,1 6,4 6,8 -1,12 -4,24 -10,35 -1,2 -3,4 -6,4zm-450 56c-2,1 -5,0 -6,-2 -9,-9 -15,-20 -19,-31 -1,-4 1,-8 4,-9 4,-2 8,0 9,4 4,10 9,19 16,27 3,2 3,7 0,10 -1,1 -3,1 -4,1zm93 19c-3,1 -6,-1 -7,-4 -2,-3 0,-8 3,-9 10,-5 18,-11 25,-19 2,-3 7,-4 10,-1 3,2 3,7 1,10 -8,10 -18,17 -29,23 -1,0 -2,0 -3,0zm272 -33c-1,0 -2,0 -3,-1 -12,-2 -23,-7 -33,-14 -4,-2 -4,-7 -2,-10 2,-3 7,-4 10,-2 8,6 18,11 28,13 4,0 6,4 6,8 -1,3 -3,5 -6,6zm33 -1c-3,0 -6,-2 -7,-6 -1,-3 1,-7 5,-8 7,-2 15,-5 21,-9 2,-2 5,-3 7,-5 3,-2 7,-2 10,1 2,4 1,8 -2,10 -2,2 -5,4 -7,6 -8,5 -17,8 -26,11l-1 0zm-338 42l0 0c-10,0 -19,-1 -28,-4 -3,-1 -6,-2 -8,-3 -4,-2 -6,-6 -4,-10 1,-3 6,-5 9,-3 2,1 5,2 7,2 8,3 16,4 23,4 4,0 8,3 8,7 0,3 -3,7 -7,7z"/>
     <path class="fil0" d="M673 832c-1,0 -1,0 -2,0 0,1 -1,1 -1,1 -1,0 -1,0 -2,0 0,1 -1,1 -1,1 -1,0 -1,0 -2,0 -1,0 -1,1 -2,1 0,0 -1,0 -1,0 -1,0 -1,0 -2,0 0,0 -1,0 -1,0 -1,0 -2,0 -2,0 -1,0 -1,0 -2,0 0,0 -1,0 -1,0 -1,0 -2,0 -2,0 -1,0 -1,0 -2,0 0,0 -1,0 -1,0 -1,0 -2,0 -2,0 -1,-1 -1,-1 -2,-1 0,0 -1,0 -2,0 0,0 -1,-1 -1,-1 -1,0 -1,0 -1,0 0,0 -1,0 -1,0 -1,0 -1,-1 -2,-1 0,0 -1,0 -1,-1 -1,0 -2,0 -2,0 -1,-1 -1,-1 -2,-1 -1,-1 -1,-1 -2,-1 0,-1 -1,-1 -2,-1 0,-1 -1,-1 -1,-2 -1,0 -2,-1 -2,-1 -1,-1 -1,-1 -2,-2 -1,0 -1,-1 -2,-1 -1,-1 -1,-2 -2,-2 0,-1 -1,-2 -2,-3 0,0 -1,-1 -2,-2 0,-1 -1,-2 -2,-3 0,-1 -1,-3 -2,-4 -1,-1 -1,-3 -2,-5 -3,-8 -5,-17 -3,-26 0,-2 0,-4 1,-5 0,-1 0,-2 0,-3l1 -2 1 -4 1 -4 1 -4 1 -4 1 -4 2 -4 1 -4 1 -4 1 -4 1 -4 1 -4 2 -4 1 -4 1 -4 1 -4 1 -5 1 -4 1 -4 2 -4 1 -4 1 -4 1 -4 1 -4 1 -4 1 -4 2 -4 1 -4 1 -4 1 -4 1 -4 1 -4 1 -4 2 -5 1 -4 1 -4 1 -4 1 -4 1 -4 2 -4 1 -4 1 -4 1 -4 1 -4 1 -4 1 -4 2 -4 1 -4 1 -4 1 -4 1 -5 1 -4 1 -4 2 -4 1 -4 1 -4 1 -4 1 -4 1 -4 1 -4 2 -4 1 -4 1 -4 1 -4 1 -4 1 -4 2 -4 1 -5 1 -4 1 -4 1 -4 1 -4 1 -4 2 -4 1 -4 1 -4 1 -4 1 -4 1 -4 1 -4 2 -4 1 -4 1 -4 1 -4 1 -5 1 -4 1 -4 2 -4 1 -4 1 -4 1 -4 1 -4 1 -4 2 -4 1 -4 1 -4 1 -4 1 -4 1 -4 0 0c1,-2 1,-3 1,-4 1,-1 1,-2 2,-3 0,-1 1,-2 1,-3 0,-1 1,-2 1,-2 1,-1 1,-2 2,-3 0,0 1,-1 1,-2 1,0 1,-1 2,-1 0,-1 1,-2 1,-2 0,-1 1,-1 1,-2 1,0 1,-1 2,-1 0,-1 1,-1 1,-2 1,0 1,0 2,-1 0,0 1,-1 1,-1 1,0 1,-1 2,-1 0,0 1,-1 1,-1 1,0 2,-1 2,-1 1,0 1,-1 2,-1 0,0 1,0 1,-1 1,0 1,0 2,0 0,-1 1,-1 1,-1 1,0 1,0 2,-1 0,0 1,0 1,0 1,0 1,0 2,-1 1,0 1,0 2,0 0,0 1,0 1,0 1,0 1,-1 2,-1 0,0 1,0 1,0l0 0c1,0 2,0 2,0 1,0 1,0 2,0 0,0 1,0 1,0 1,0 2,0 2,0 1,0 1,0 2,0 0,0 1,0 1,0 1,0 1,0 2,0 1,0 1,0 2,0 0,0 1,1 1,1 1,0 2,0 2,0 1,0 1,0 2,1 0,0 1,0 2,0 0,0 1,0 1,1 1,0 1,0 2,0 1,1 1,1 2,1 0,0 1,1 2,1 0,0 1,1 1,1 1,0 2,1 2,1 1,0 1,1 2,1 1,1 1,1 2,1 0,1 1,1 2,2 0,0 1,1 1,1 1,1 2,2 2,2 1,1 2,2 2,2 1,1 2,2 2,3 1,1 1,1 2,2 1,1 2,3 2,4l0 0 2 3 2 4 3 4 2 3 2 4 2 4 2 3 2 4 2 4 2 3 2 4 2 4 3 3 2 4 2 4 2 3 2 4 2 3 2 4 2 4 2 3 3 4 2 4 2 3 2 4 2 4 2 3 2 4 2 4 2 3 3 4 2 4 2 3 2 4 2 4 2 3 2 4 2 4 2 3 3 4 2 4 2 3 2 4 2 3 2 4 2 4 2 3 2 4 2 4 3 3 2 4 2 4 2 3 2 4 2 4 2 3 2 4 2 4 3 3 2 4 2 4 2 3 2 4 2 4 2 3 2 4 2 4 3 3 2 4 2 3 2 4 2 4 2 3 2 4 2 4 2 3 3 4 2 4 2 3 2 4 2 4 2 3 2 4 2 4 2 3 2 4 3 4 2 3 2 4 2 4 2 3 2 4 2 4 2 3 2 4 3 3 2 4 2 4 1 1c0,1 1,2 1,3 1,1 2,3 2,5 3,8 4,17 3,26 0,1 0,3 -1,5 0,2 0,3 -1,4 0,1 0,3 -1,4 0,1 -1,2 -1,3 -1,1 -1,1 -2,2 0,1 0,2 -1,3 0,0 -1,1 -1,2 -1,0 -1,1 -2,2 0,0 -1,1 -1,1 -1,1 -1,2 -2,2 0,1 -1,1 -1,2 -1,0 -1,1 -2,1 0,0 0,1 -1,1 0,1 -1,1 -2,2 0,0 -1,0 -1,1 -1,0 -1,0 -2,1 0,0 0,0 0,0l-1 1c-1,0 -1,0 -2,1 0,0 -1,0 -1,0 -1,1 -1,1 -2,1 0,0 -1,1 -1,1 -1,0 -1,0 -2,0 0,1 -1,1 -1,1 -1,0 -2,0 -2,1 -1,0 -1,0 -2,0 0,0 -1,0 -1,0 -1,0 -1,1 -2,1 0,0 -1,0 -1,0l-1 0 -1 0c-1,0 -1,0 -2,0 0,0 -1,0 -1,0 -1,0 -1,0 -2,0 -1,0 -1,0 -2,0 0,0 -1,0 -1,0 -1,0 -1,0 -2,0 -1,0 -1,0 -2,0 0,0 -1,0 -1,0 -1,0 -2,-1 -2,-1 -1,0 -1,0 -2,0 0,0 -1,0 -2,-1 0,0 -1,0 -1,0 -1,0 -1,-1 -2,-1 -1,0 -1,0 -2,0 0,-1 -1,-1 -1,-1 -1,-1 -2,-1 -2,-1 -1,-1 -1,-1 -2,-1 -1,-1 -1,-1 -2,-1 0,-1 -1,-1 -2,-2 0,0 -1,0 -1,-1 -1,0 -2,-1 -2,-1 -1,-1 -2,-2 -2,-2 -1,-1 -1,-1 -2,-2 -1,-1 -1,-1 -2,-2 -1,-1 -1,-2 -2,-3 -1,-1 -1,-2 -2,-3 0,0 -1,-1 -1,-2l-1 -1 -2 -4 -2 -4 -2 -3 -2 -4 -3 -4 -2 -3 -2 -4 -2 -3 -2 -4 -2 -4 -2 -3 -2 -4 -2 -4 -3 -3 -2 -4 -2 -4 -2 -3 -2 -4 -2 -4 -2 -3 -2 -4 -2 -4 -3 -3 -2 -4 -1 -2 -1 0 -1 0 -2 1 -1 0 -2 0 -2 0 -1 0 -2 1 -2 0 -1 0 -2 0 -1 0 -2 1 -2 0 -1 0 -2 0 -2 0 -1 1 -2 0 -1 0 -2 0 -2 0 -1 1 -2 0 -2 0 -1 0 -2 0 -1 1 -2 0 -2 0 -1 0 -2 0 -2 1 -1 0 -2 0 -2 0 -1 0 -2 1 -1 0 -2 0 -2 0 -1 0 -2 1 -2 0 -1 0 -2 0 -1 0 -2 1 -2 0 -1 0 -2 0 -2 0 -1 1 -2 0 -1 0 -2 0 -2 0 -1 1 -2 0 -2 0 -1 0 -2 0 -1 1 -2 0 -2 0 -1 0 -2 1 -2 0 -1 0 -2 0 -1 0 -2 1 -2 0 -1 0 -2 0 -2 0 -1 1 -2 0 -2 0 -1 0 -2 0 -1 1 -2 0 -2 0 -1 0 -2 0 -2 1 -1 0 -2 0 -1 0 -2 0 -2 1 -1 0 -1 0 -1 2 -1 4 -1 4 -1 4 -1 4 -1 4 -2 4 -1 5 -1 4 -1 4 -1 4 -1 4 -1 4 -2 4 -1 4 -1 4 -1 4 -1 4 -1 4 -1 4 -2 4 -1 4 -1 4 -1 4 -1 5 -1 1c0,1 0,2 0,2 -1,2 -1,3 -2,4 0,1 0,2 -1,3 0,1 -1,2 -1,2 -1,1 -1,2 -2,3 0,0 -1,1 -1,2 0,0 -1,1 -1,2 -1,0 -1,1 -2,1 0,1 -1,2 -1,2 -1,1 -1,1 -2,2 0,0 -1,1 -1,1 -1,0 -1,1 -2,1 0,1 -1,1 -1,2 -1,0 -1,0 -2,1 0,0 -1,0 -1,1 -1,0 -1,0 -2,1 0,0 -1,0 -1,1 -1,0 -1,0 -2,0 0,1 -1,1 -1,1 -1,0 -2,1 -2,1zm148 -257l-2 -4 -2 -3 -2 -4 -2 -3 -2 -4 -2 -4 -3 -3 -2 -4 -2 -4 -2 -3 -2 -4 -2 -4 -2 -3 -2 -4 -2 -4 -2 -3 -3 -4 -2 -4 -1 4 -1 4 -1 5 -1 4 -1 4 -2 4 -1 4 -1 4 -1 4 -1 4 -1 4 -1 4 -2 4 -1 4 -1 4 -1 4 -1 4 -1 4 -2 4 -1 5 0 0 0 0 2 0 2 0 1 0 2 -1 2 0 1 0 2 0 1 0 2 -1 2 0 1 0 2 0 2 0 1 -1 2 0 1 0 2 0 2 0 1 -1 2 0 2 0 1 0 2 0 1 -1 2 0 2 0 1 0 2 0 2 -1 1 0 2 0 2 0 1 0 2 -1 1 0 2 0 2 0 1 0 2 -1 2 0 0 0 -1 -1 -2 -3 -2 -4z"/>
    </g>
    <g id="B">
     <path class="fil1" d="M453 520c-3,0 -5,-2 -7,-4 -4,-5 -8,-10 -12,-15 -2,-2 -3,-5 -2,-8 3,-6 5,-12 7,-18 1,-5 6,-7 10,-6 5,1 7,6 6,10 -2,5 -3,10 -5,15 3,4 6,8 9,12 3,4 2,9 -1,12 -2,1 -4,2 -5,2z"/>
     <path class="fil1" d="M201 213l-40 0c-4,0 -8,-4 -8,-9 0,-4 4,-8 8,-8l40 0c5,0 9,4 9,8 0,5 -4,9 -9,9zm80 1l-1 0c-8,-1 -17,-1 -26,-1l-13 0c-4,0 -8,-4 -8,-9 0,-4 4,-8 8,-8l13 0c10,0 19,1 28,2 5,1 8,5 7,9 0,4 -4,7 -8,7zm-197 13c-2,0 -5,-2 -7,-4 -2,-4 -1,-9 3,-12 12,-7 26,-12 41,-14 4,-1 8,2 9,7 0,5 -3,9 -7,9 -12,2 -24,6 -34,13 -2,0 -3,1 -5,1zm272 14c-2,0 -3,0 -4,-1 -11,-7 -23,-12 -35,-17 -4,-1 -6,-6 -5,-10 2,-5 6,-7 11,-5 13,4 25,10 37,18 4,2 5,7 3,11 -2,3 -4,4 -7,4zm-315 50c-1,0 -2,0 -2,0 -5,-1 -8,-5 -7,-10 3,-14 9,-28 17,-40 3,-3 8,-4 11,-2 4,3 5,8 3,12 -7,10 -12,21 -14,33 -1,4 -5,7 -8,7zm373 4c-2,0 -5,-1 -6,-4 -5,-6 -11,-13 -16,-19 -4,-3 -7,-6 -10,-9 -3,-3 -3,-8 0,-12 3,-3 8,-3 11,0 4,3 7,6 11,10 6,6 12,13 17,21 3,3 2,9 -2,11 -1,1 -3,2 -5,2zm35 71c-4,0 -7,-2 -8,-6 -4,-12 -8,-24 -14,-36 -2,-4 0,-9 4,-11 4,-2 9,0 11,4 6,13 11,26 15,39 1,4 -2,9 -6,10 -1,0 -2,0 -2,0zm-410 5c-5,0 -9,-4 -9,-9l0 -39c0,-5 4,-9 9,-9 4,0 8,4 8,9l0 39c0,5 -4,9 -8,9zm416 75l-1 0c-5,-1 -8,-5 -8,-9 1,-8 2,-15 2,-23 0,-5 -1,-11 -1,-16 0,-4 3,-8 8,-9 4,0 8,3 9,8 0,6 0,12 0,17 0,8 0,16 -1,24 0,5 -4,8 -8,8zm-416 5c-5,0 -9,-4 -9,-9l0 -40c0,-4 4,-8 9,-8 4,0 8,4 8,8l0 40c0,5 -4,9 -8,9zm0 80c-5,0 -9,-4 -9,-9l0 -40c0,-4 4,-8 9,-8 4,0 8,4 8,8l0 40c0,5 -4,9 -8,9zm448 60c-4,0 -7,-2 -8,-6 -4,-12 -8,-24 -13,-36 -2,-4 -1,-9 4,-11 4,-2 9,0 11,4 5,13 10,26 14,39 1,4 -2,9 -6,10 -1,0 -2,0 -2,0zm-448 19c-5,0 -9,-3 -9,-8l0 -40c0,-4 4,-8 9,-8 4,0 8,4 8,8l0 40c0,5 -4,8 -8,8zm454 61l-1 0c-5,-1 -8,-5 -8,-10 1,-7 2,-15 2,-22 0,-5 -1,-11 -1,-16 0,-5 3,-8 8,-9 4,0 8,3 9,8 0,5 0,11 0,17 0,8 0,16 -1,24 -1,4 -4,8 -8,8zm-454 19c-5,0 -9,-3 -9,-8l0 -40c0,-5 4,-8 9,-8 4,0 8,3 8,8l0 40c0,5 -4,8 -8,8zm431 57c-1,0 -3,-1 -4,-1 -4,-2 -6,-7 -4,-11 6,-12 11,-24 15,-36 1,-4 6,-7 10,-6 4,2 7,6 6,11 -4,13 -9,26 -16,38 -1,3 -4,5 -7,5zm-431 23c-4,0 -8,-3 -8,-7 0,-4 -1,-8 -1,-12l0 -29c0,-5 4,-8 9,-8 4,0 8,3 8,8l0 29c0,3 0,7 0,10 1,5 -2,9 -7,9l-1 0zm382 39c-3,0 -5,-1 -7,-3 -3,-3 -2,-8 1,-11 5,-5 10,-9 14,-14 5,-5 9,-9 13,-14 2,-4 8,-4 11,-2 4,3 5,8 2,12 -4,5 -9,10 -14,15 -4,6 -10,10 -15,15 -2,1 -3,2 -5,2zm-344 29c-2,0 -3,-1 -5,-2 -11,-9 -21,-19 -28,-32 -2,-4 -1,-9 3,-12 4,-2 9,0 11,4 7,10 14,20 24,27 4,3 5,8 2,12 -2,2 -4,3 -7,3zm275 10c-4,0 -7,-2 -8,-6 -2,-4 1,-9 5,-10 12,-4 24,-9 35,-15 4,-3 9,-1 11,3 3,4 1,9 -3,11 -12,7 -25,12 -38,17 -1,0 -2,0 -2,0zm-199 9l0 0c-4,0 -7,0 -10,0 -11,1 -21,0 -32,-2 -4,-1 -7,-6 -6,-10 1,-5 5,-8 10,-7 9,3 18,3 27,2 1,0 1,0 2,0 3,0 6,1 9,1 4,0 8,3 8,8 0,4 -4,8 -8,8zm80 0l-40 0c-5,0 -9,-4 -9,-8 0,-5 4,-8 9,-8l40 0c4,0 8,3 8,8 0,4 -4,8 -8,8zm59 0l-19 0c-5,0 -9,-4 -9,-8 0,-5 4,-8 9,-8l19 0c7,0 13,-1 20,-1 4,-1 8,2 9,7 0,5 -3,9 -8,9 -7,1 -14,1 -21,1z"/>
     <path class="fil1" d="M249 661l-20 0c-5,0 -9,-4 -9,-8l0 -28c0,-5 4,-9 9,-9l20 0c4,0 8,4 8,9 0,4 -4,8 -8,8l-12 0 0 12 12 0c4,0 8,3 8,8 0,4 -4,8 -8,8z"/>
     <path class="fil1" d="M292 661l-1 0c-4,0 -8,-4 -8,-8 0,-5 4,-8 8,-8l1 0c0,0 1,0 2,-1 1,-2 1,-3 1,-5 0,-2 0,-4 -1,-5 -1,-1 -2,-1 -2,-1l-1 0c-4,0 -8,-4 -8,-8 0,-5 4,-9 8,-9l1 0c5,0 10,2 14,6 4,5 6,10 6,17 0,6 -2,12 -6,16 -4,4 -9,6 -14,6z"/>
     <path class="fil1" d="M249 437l-20 0c-5,0 -9,-4 -9,-8l0 -29c0,-4 4,-8 9,-8l20 0c4,0 8,4 8,8 0,5 -4,9 -8,9l-12 0 0 11 12 0c4,0 8,4 8,9 0,4 -4,8 -8,8z"/>
     <path class="fil1" d="M78 764c-1,-4 -1,-8 -1,-13l0 -449c0,-4 0,-9 1,-13 1,-2 1,-4 2,-6 0,-1 1,-3 1,-4 1,-1 1,-2 2,-3 0,-1 1,-2 1,-3 1,-1 1,-2 2,-3 0,-1 1,-1 1,-2 1,-1 1,-2 2,-2 0,-1 1,-2 1,-2 1,-1 1,-1 2,-2 0,-1 1,-1 1,-2 1,0 1,-1 2,-1 0,-1 1,-1 1,-2 1,0 1,0 2,-1 0,0 1,-1 1,-1 0,-1 1,-1 1,-1 1,-1 1,-1 2,-1 0,-1 1,-1 1,-1 1,-1 1,-1 2,-1 0,-1 1,-1 1,-1 1,0 1,-1 2,-1 0,0 1,-1 1,-1 1,0 1,0 2,0 0,-1 1,-1 1,-1 1,0 1,-1 2,-1 0,0 1,0 1,0 1,0 1,-1 2,-1 0,0 1,0 1,0 1,0 1,-1 2,-1 0,0 1,0 1,0 1,0 1,0 2,0 0,0 1,-1 1,-1 1,0 1,0 2,0 0,0 1,0 1,0 1,0 1,0 2,0 0,0 1,0 1,0 1,0 1,0 2,0l0 0 1 0 2 0 1 0 1 0 2 0 1 0 2 0 1 0 2 0 1 0 2 0 1 0 2 0 1 0 2 0 1 0 2 0 1 0 2 0 1 0 2 0 1 0 2 0 1 0 2 0 1 0 2 0 1 0 1 0 2 0 1 0 2 0 1 0 2 0 1 0 2 0 1 0 2 0 1 0 2 0 1 0 2 0 1 0 2 0 1 0 2 0 1 0 2 0 1 0 2 0 1 0 1 0 2 0 1 0 2 0 1 0 2 0 1 0 2 0 1 0 2 0 1 0 2 0 1 0 2 0 1 0 2 0 1 0 2 0 1 0 2 0 1 0 2 0 1 0 2 0 1 0 1 0 2 0 1 0 2 0 1 0 2 0 1 0 2 0 1 0 1 0 1 0 1 0 2 0 1 0c1,0 1,0 2,0l1 0 2 0 1 0c1,0 1,0 2,0l1 0 2 1 1 0 2 0 1 0 2 1 1 0 1 0 2 0 1 1 2 0 1 0 2 1 1 0 2 0 1 1 2 0 1 0 2 1 1 0 2 1 1 0 2 1 1 0 2 1 1 0 2 1 1 0 2 1 1 1 2 0 1 1 1 1 2 0 1 1 2 1 1 0 2 1 1 1 2 1c0,0 1,0 1,1l2 1c0,0 1,0 1,0l2 1c0,1 1,1 1,1l2 1c0,0 1,1 1,1 1,0 1,1 2,1l1 1 2 1c0,0 1,1 1,1l2 1c0,1 1,1 1,1l2 1c0,1 1,1 1,2 1,0 1,0 2,1 0,0 0,1 1,1 0,0 1,1 1,1 1,1 1,1 2,1 0,1 1,1 1,2 1,0 1,1 2,1 0,1 1,1 1,1 1,1 1,1 2,2 0,0 1,1 1,1 1,1 1,1 2,2 0,0 1,1 1,1 1,1 1,1 2,2l0 0c0,0 1,1 1,1 1,1 1,1 2,2 0,0 1,1 1,2 1,0 1,1 2,1 0,1 1,1 1,2 1,1 1,1 2,2 0,0 1,1 1,2 1,0 1,1 2,2 0,0 1,1 1,2 1,0 1,1 2,2 0,0 1,1 1,2 1,0 1,1 2,2 0,1 1,1 1,2 1,1 1,2 1,2 1,1 1,2 2,3 0,0 1,1 1,2 1,1 1,2 2,3 0,1 1,1 1,2 1,1 1,2 2,3 0,1 1,2 1,3 1,1 1,2 2,3 0,1 1,2 1,3 1,2 1,3 2,4 0,1 1,2 1,3 1,2 1,3 2,4 0,2 1,3 1,4 1,2 1,4 2,5 0,2 1,3 1,5 1,2 1,4 2,6 0,2 1,4 1,7 1,2 1,5 2,8 0,4 1,8 1,13 1,5 1,9 1,14 0,5 0,10 -1,15 0,4 -1,9 -1,13 -1,3 -1,5 -2,8 0,2 -1,5 -1,7 -1,2 -1,4 -2,5 0,2 -1,4 -1,5 -1,2 -1,4 -2,5 0,1 -1,3 -1,4 -1,1 -1,3 -2,4 0,1 -1,2 -1,4 -1,1 -1,2 -2,3 0,1 -1,2 -1,3 -1,1 -1,2 -2,3 0,1 -1,2 -1,3 -1,1 -1,2 -2,3 0,1 -1,2 -1,3 0,1 -1,1 -1,2l1 1 1 1 2 2 1 1c1,0 1,1 2,1 0,1 1,1 1,2 1,0 1,1 2,1 0,1 1,1 1,2 1,0 1,1 2,1l1 1 0 1c1,0 1,1 2,1 0,1 1,1 1,2 1,0 1,1 2,2 0,0 1,1 1,1 1,1 1,1 2,2 0,1 1,1 1,2 1,0 1,1 2,2 0,0 1,1 1,2 1,0 1,1 2,2 0,0 1,1 1,2 1,0 1,1 2,2 0,0 1,1 1,2 1,1 1,1 1,2 1,1 1,2 2,3 0,0 1,1 1,2 1,1 1,2 2,2 0,1 1,2 1,3 1,1 1,2 2,3 0,1 1,2 1,3 1,1 1,2 2,3 0,1 1,2 1,3 1,1 1,2 2,3 0,1 1,2 1,4 1,1 1,2 2,3 0,2 1,3 1,4 1,2 1,3 2,5 0,1 1,3 1,4 1,2 1,4 2,6 0,2 1,4 1,6 1,2 1,4 2,7 0,3 1,6 1,9 1,8 2,16 2,24 0,8 -1,15 -2,23 0,3 -1,6 -1,10 -1,2 -1,4 -2,7 0,2 -1,4 -1,6 -1,2 -1,3 -2,5 0,2 -1,3 -1,5 -1,1 -1,3 -2,4 0,2 -1,3 -1,4 -1,1 -1,3 -2,4 0,1 -1,2 -1,3 -1,2 -1,3 -2,4 0,1 -1,2 -1,3 -1,1 -1,2 -2,3 0,1 -1,2 -1,3 -1,1 -1,2 -2,2 0,1 -1,2 -1,3 -1,1 -1,2 -2,3 0,0 -1,1 -1,2 -1,1 -1,1 -2,2 0,1 0,2 -1,3 0,0 -1,1 -1,2 -1,0 -1,1 -2,2 0,0 -1,1 -1,2 -1,0 -1,1 -2,2 0,0 -1,1 -1,2 -1,0 -1,1 -2,2 0,0 -1,1 -1,1 -1,1 -1,2 -2,2 0,1 -1,1 -1,2 -1,0 -1,1 -2,2 0,0 -1,1 -1,1 -1,1 -1,1 -2,2l0 0 -1 1c-1,1 -1,1 -2,2 0,0 -1,1 -1,1 -1,1 -1,1 -2,2 0,0 -1,1 -1,1 -1,1 -1,1 -2,2 0,0 -1,0 -1,1 -1,0 -1,1 -2,1 0,1 -1,1 -1,1l-2 2c0,0 -1,1 -1,1 -1,0 -1,1 -2,1 0,1 0,1 -1,1l-1 1c-1,1 -1,1 -2,2l-1 1c-1,0 -1,0 -2,1 0,0 -1,0 -1,1 -1,0 -1,0 -2,1 0,0 -1,0 -1,1l-2 1 -1 1c-1,0 -1,0 -2,1l-1 0 -2 1 -1 1 -2 1 -1 1 -2 1c0,0 -1,0 -1,0l-2 1 -1 1 -2 1 -1 0 -2 1 -1 1c-1,0 -1,0 -1,0l-2 1 -1 0 -2 1 -1 1 -2 0 -1 1 -2 0 -1 1 -2 0 -1 1 -2 0 -1 1 -2 0 -1 0 -2 1 -1 0 -2 0 -1 1 -2 0 -1 0 -2 1 -1 0 -2 0 -1 1 -1 0 -2 0 -1 0 -2 0 -1 1 -2 0 -1 0 -2 0 -1 0 -2 0 -1 0 -2 0 -1 1 -2 0 -1 0 -2 0 -1 0 -1 0 -1 0 -1 0 -2 0 -1 0 -2 0 -1 0 -2 0 -1 0 -1 0 -2 0 -1 0 -2 0 -1 0 -2 0 -1 0 -2 0 -1 0 -2 0 -1 0 -2 0 -1 0 -2 0 -1 0 -2 0 -1 0 -2 0 -1 0 -2 0 -1 0 -2 0 -1 0 -2 0 -1 0 -1 0 -2 0 -1 0 -2 0 -1 0 -2 0 -1 0 -2 0 -1 0 -2 0 -1 0 -2 0 -1 0 -2 0 -1 0 -2 0 -1 0 -2 0 -1 0 -2 0 -1 0 -2 0 -1 0 -2 0 -1 0 -1 0 -2 0 -1 0 -2 0 -1 0 -2 0 -1 0 -2 0 -1 0 -2 0 -1 0 -2 0 -1 0 -2 0 -1 0 -2 0 -1 0 -2 0 -1 0 -2 0 -1 0 -2 0 -1 0 -1 0 -2 0 -1 0 -2 0 -1 0 -2 0 -1 0 -2 0 -1 0 -2 0 -1 0 -2 0 -1 0 -1 0 -1 0c0,0 -1,0 -1,0 -1,0 -1,0 -2,0 0,0 -1,-1 -1,-1 -1,0 -1,0 -2,0 0,0 -1,0 -1,0 -1,0 -1,0 -2,0l0 0c0,0 -1,0 -1,0 -1,0 -1,0 -2,0 0,0 -1,0 -1,0 -1,0 -1,0 -2,1 0,0 -1,0 -1,0 0,0 -1,0 -1,0l-1 0 -1 0c0,0 -1,0 -1,0 -1,0 -1,0 -2,0 0,0 -1,-1 -1,-1 -1,0 -1,0 -2,0 0,0 -1,0 -1,0 -1,0 -1,0 -2,0 0,0 -1,0 -1,0 -1,-1 -1,-1 -2,-1 0,0 -1,0 -1,0 -1,0 -1,0 -2,-1 0,0 -1,0 -1,0 -1,0 -1,0 -2,-1 0,0 -1,0 -1,0 -1,0 -1,0 -2,-1 0,0 -1,0 -1,0 -1,-1 -1,-1 -2,-1 0,0 -1,-1 -1,-1 -1,0 -1,0 -2,-1 0,0 -1,0 -1,-1 -1,0 -1,0 -2,0 0,-1 -1,-1 -1,-1 -1,-1 -1,-1 -2,-2 0,0 -1,0 -1,-1 0,0 -1,-1 -1,-1 -1,0 -1,-1 -2,-1 0,-1 -1,-1 -1,-2 -1,0 -1,-1 -2,-1 0,-1 -1,-1 -1,-2 -1,0 -1,-1 -2,-2 0,0 -1,-1 -1,-2 -1,0 -1,-1 -2,-2 0,0 -1,-1 -1,-2 -1,-1 -1,-2 -2,-3 0,-1 -1,-2 -1,-3 -1,-1 -1,-2 -2,-3 0,-1 -1,-3 -1,-4 -1,-2 -1,-4 -2,-6zm264 -131c-1,-3 -1,-6 -2,-8 0,-2 -1,-3 -1,-5 -1,-1 -1,-2 -2,-4 0,-1 -1,-2 -1,-3 -1,-1 -1,-1 -2,-2 0,-1 -1,-2 -1,-3 -1,0 -1,-1 -2,-2 0,0 -1,-1 -1,-2 -1,0 -1,-1 -2,-1 0,-1 0,-1 -1,-1l0 -1c-1,0 -1,-1 -2,-1 0,-1 -1,-1 -1,-2 -1,0 -1,0 -2,-1 0,0 -1,-1 -1,-1 -1,0 -1,-1 -2,-1 0,0 -1,-1 -1,-1 0,0 -1,-1 -1,-1 -1,0 -1,-1 -2,-1 0,0 -1,0 -1,-1 -1,0 -1,0 -2,0 0,-1 -1,-1 -1,-1 -1,0 -1,0 -2,-1 0,0 -1,0 -1,0 -1,0 -1,0 -2,-1 0,0 -1,0 -1,0 -1,0 -1,0 -2,0 0,0 -1,-1 -1,-1 -1,0 -1,0 -2,0 0,0 -1,0 -1,0 -1,0 -1,0 -2,0 0,0 -1,0 -1,0 -1,-1 -1,-1 -2,-1 0,0 -1,0 -1,0l-1 0 -1 0 -1 0 -2 0 -1 0 -2 0 -1 0 -2 0 -1 0 -1 0 -2 0 -1 0 -2 0 -1 0 -2 0 -1 0 -2 0 -1 0 -2 0 -1 0 -2 0 -1 0 -2 0 -1 0 -2 0 -1 0 -2 0 0 0 -1 0 -2 0 -1 0 -2 0 -1 0 -2 0 -1 0 -1 0 -2 0 -1 0 -2 0 -1 0 -2 0 -1 0 -2 0 -1 0 -2 0 -1 0 -2 0 -1 0 -2 0 -1 0 -2 0 -1 0 -2 0 -1 0 -2 0 -1 0 -2 0 -1 0 -2 0 -1 0 -1 0 -2 0 -1 0 -2 0 -1 0 -2 0 -1 0 -2 0 -1 0 -2 0 -1 0 -1 0 0 105 1 0 1 0 2 0 1 0 2 0 1 0 2 0 1 0 2 0 1 0 2 0 1 0 1 0 2 0 1 0 2 0 1 0 2 0 1 0 2 0 1 0 2 0 1 0 2 0 1 0 2 0 1 0 2 0 1 0 2 0 1 0 2 0 1 0 2 0 1 0 2 0 1 0 1 0 2 0 1 0 2 0 1 0 2 0 1 0 2 0 1 0 2 0 1 0 2 0 1 0 2 0 1 0 2 0 1 0 2 0 1 0 2 0 1 0 2 0 1 0 2 0 1 0 1 0 2 0 1 0 2 0 1 0 2 0 1 0 1 0 1 0c0,0 1,0 1,0 1,0 1,0 2,0 0,0 1,0 1,0 1,0 1,0 2,0 0,0 1,-1 1,-1 1,0 1,0 2,0 0,0 1,0 1,0 1,0 1,0 2,-1 0,0 1,0 1,0 1,0 1,0 2,0 0,-1 1,-1 1,-1 1,0 1,0 2,-1 0,0 1,0 1,0 1,0 1,-1 2,-1 0,0 1,0 1,-1 1,0 1,0 2,-1 0,0 1,0 1,0 0,-1 1,-1 1,-1 1,-1 1,-1 2,-2 0,0 1,0 1,-1 1,0 1,0 2,-1 0,0 1,-1 1,-1 1,-1 1,-1 2,-2l0 0c1,-1 1,-1 1,-1 1,-1 1,-1 2,-2 0,-1 1,-1 1,-2 1,-1 1,-1 2,-2 0,-1 1,-1 1,-2 1,-1 1,-2 2,-3 0,-1 1,-2 1,-3 1,-1 1,-2 2,-4 0,-1 1,-3 1,-4 1,-3 1,-6 2,-9 0,-1 0,-3 0,-5 0,-2 0,-4 0,-6zm-39 -228c0,-3 -1,-5 -1,-7 -1,-1 -1,-2 -2,-4 0,-1 -1,-2 -1,-3 -1,-1 -1,-2 -2,-3 0,-1 -1,-2 -1,-3 -1,0 -1,-1 -2,-2 0,0 -1,-1 -1,-2 -1,0 -1,-1 -2,-2 0,0 -1,-1 -1,-1l0 -1c-1,0 -1,0 -2,-1 0,0 -1,-1 -1,-1 -1,-1 -1,-1 -2,-1 0,-1 -1,-1 -1,-2 -1,0 -1,0 -2,-1 0,0 0,0 -1,-1 0,0 -1,0 -1,-1 -1,0 -1,0 -2,-1 0,0 -1,0 -1,0 -1,-1 -1,-1 -2,-1 0,0 -1,-1 -1,-1 -1,0 -1,0 -2,0 0,-1 -1,-1 -1,-1 -1,0 -1,0 -2,-1 0,0 -1,0 -1,0 -1,0 -1,0 -2,0 0,-1 -1,-1 -1,-1 -1,0 -1,0 -2,0 0,0 -1,0 -1,0 -1,0 -1,0 -2,-1 0,0 -1,0 -1,0 -1,0 -1,0 -2,0 0,0 -1,0 -1,0 -1,0 -1,0 -2,0l0 0 -1 0 -2 0 -1 0 -2 0 -1 0 -2 0 -1 0 -1 0 -2 0 -1 0 -2 0 -1 0 -2 0 -1 0 -2 0 -1 0 -2 0 -1 0 -2 0 -1 0 -2 0 -1 0 -2 0 -1 0 -2 0 -1 0 -2 0 -1 0 -2 0 -1 0 -2 0 -1 0 -1 0 -2 0 -1 0 -2 0 -1 0 -2 0 -1 0 -2 0 -1 0 -2 0 -1 0 -1 0 0 105 1 0 1 0 2 0 1 0 2 0 1 0 2 0 1 0 2 0 1 0 2 0 1 0 1 0 2 0 1 0 2 0 1 0 2 0 1 0 2 0 1 0 2 0 1 0 2 0 1 0 2 0 1 0 2 0 1 0 2 0 1 0 2 0 1 0 2 0 1 0 2 0 1 0 1 0 2 0 1 0 2 0 1 0 2 0 1 0 0 0c1,0 1,0 2,0 0,0 1,0 1,0 1,0 1,0 2,0 0,0 1,-1 1,-1 1,0 1,0 2,0 0,0 1,0 1,0 1,0 1,0 2,0 0,0 1,-1 1,-1 1,0 1,0 2,0 0,0 1,0 1,-1 1,0 1,0 2,0 0,0 1,0 1,-1 1,0 1,0 2,0 0,0 1,-1 1,-1 1,0 1,0 2,-1 0,0 1,0 1,-1 1,0 1,0 2,0 0,-1 1,-1 1,-1 1,-1 1,-1 1,-1 1,-1 1,-1 2,-1 0,-1 1,-1 1,-2 1,0 1,-1 2,-1 0,0 1,-1 1,-1 1,-1 1,-1 2,-2l0 0c0,0 1,-1 1,-2 1,0 1,-1 2,-1 0,-1 1,-2 1,-2 1,-1 1,-2 2,-3 0,0 1,-1 1,-2 1,-1 1,-2 2,-3 0,-1 1,-2 1,-3 1,-2 1,-3 2,-5 0,-2 1,-4 1,-6 1,-3 1,-6 1,-10 0,-3 0,-6 -1,-9z"/>
    </g>
    <g id="M">
     <path class="fil2" d="M1386 502c-4,-1 -6,-3 -7,-6l-3 -17c-1,-4 1,-7 5,-8 3,-1 6,0 7,2 2,-1 5,-2 8,-1 3,2 5,6 3,10l-6 15c-1,3 -4,5 -7,5z"/>
     <path class="fil2" d="M1563 331c-1,0 -2,0 -3,-1 -9,-6 -19,-10 -29,-12 -4,-1 -6,-5 -5,-8 0,-4 4,-7 8,-6 12,2 24,7 34,14 3,3 4,7 1,10 -1,2 -4,3 -6,3zm-95 3c-2,0 -4,-1 -5,-3 -3,-3 -2,-7 1,-9 10,-8 21,-14 33,-17 4,-1 8,1 9,5 0,4 -2,8 -6,9 -10,2 -19,7 -27,14 -2,1 -4,1 -5,1zm129 54c-3,0 -6,-3 -6,-6 -2,-10 -5,-20 -10,-29 -2,-4 -1,-8 2,-10 3,-2 8,-1 10,2 6,11 10,23 12,35 0,4 -2,8 -6,8 -1,0 -1,0 -2,0zm-165 4c0,-1 -1,-1 -2,-1 -3,-2 -5,-6 -4,-9l11 -25c1,-2 2,-5 3,-7 2,-4 6,-5 10,-3 3,2 5,6 3,9 -1,3 -2,5 -3,7l-11 24c-1,3 -4,5 -7,5zm173 64c-3,0 -6,-3 -6,-6l-4 -34c-1,-4 2,-8 6,-8 4,0 7,2 8,6l4 34c0,4 -3,8 -7,8 0,0 -1,0 -1,0zm-199 -2c-1,0 -2,0 -3,0 -3,-2 -5,-6 -3,-9l13 -32c2,-3 6,-5 9,-4 4,2 6,6 4,10l-13 31c-1,3 -4,5 -7,4zm207 70c-4,0 -6,-3 -7,-6l-4 -34c0,-4 3,-8 7,-8 4,0 7,2 7,6l4 34c1,4 -2,8 -6,8 0,0 -1,0 -1,0zm7 68c-3,0 -6,-3 -6,-6l-4 -34c0,-4 2,-8 6,-8 4,-1 8,2 8,6l4 34c0,4 -2,7 -6,8 -1,0 -1,0 -2,0zm8 68c-3,-1 -6,-3 -6,-6l-4 -34c-1,-4 2,-8 6,-8 4,-1 7,2 8,6l4 34c0,4 -3,7 -6,8 -1,0 -1,0 -2,0zm8 68c-4,-1 -6,-3 -7,-7l-3 -34c-1,-3 2,-7 6,-7 4,-1 7,2 8,6l3 34c1,4 -2,7 -6,8 0,0 -1,0 -1,0zm6 68c-4,-1 -7,-4 -7,-8 1,-5 1,-11 0,-16l-2 -17c0,-3 3,-7 6,-7 4,-1 8,2 8,6l2 17c1,6 1,12 0,18 0,4 -3,7 -7,7l0 0zm-161 5c-3,0 -6,-3 -7,-6 0,-1 0,-2 0,-2l-4 -32c0,-4 3,-7 7,-8 4,0 7,2 8,6l3 32c0,1 0,1 0,2 1,4 -2,8 -6,8 0,0 -1,0 -1,0zm130 53c-2,0 -4,-1 -5,-2 -3,-3 -2,-8 1,-10 8,-7 15,-15 20,-24 1,-4 6,-5 9,-3 4,2 5,6 3,9 -6,12 -14,21 -23,29 -2,1 -4,2 -5,1zm-96 4c-1,0 -2,-1 -3,-1 -10,-7 -19,-17 -25,-27 -2,-4 -1,-8 2,-10 3,-2 8,-1 10,2 5,9 13,17 21,23 3,2 4,7 2,10 -2,2 -4,3 -7,3zm38 14c-2,0 -5,-1 -7,-1 -4,-1 -7,-4 -6,-8 1,-4 5,-7 8,-6 8,1 15,2 23,1 3,-1 5,-1 8,-2 4,-1 8,1 9,5 1,4 -1,8 -5,9 -3,0 -7,1 -10,2 -7,0 -13,1 -20,0z"/>
     <path class="fil2" d="M1473 733c-2,0 -3,-1 -4,-2 -2,1 -5,1 -7,0 -3,-1 -5,-6 -3,-9l6 -16c1,-3 5,-4 8,-4 3,0 5,3 6,6l2 17c0,4 -3,7 -7,8 0,0 -1,0 -1,0z"/>
     <path class="fil2" d="M1439 792c-1,0 -2,0 -2,-1 -4,-1 -6,-5 -4,-9l13 -30c1,-4 5,-5 9,-4 4,2 5,6 4,10l-13 30c-1,3 -4,4 -7,4zm-161 -15c-3,0 -5,-3 -6,-6l-7 -32c-1,-4 2,-7 6,-8 4,-1 7,1 8,5l7 32c1,4 -2,8 -5,9 -1,0 -2,0 -3,0zm121 65c-2,0 -4,-1 -5,-3 -2,-3 -1,-8 2,-10 9,-5 17,-11 23,-19 2,-4 7,-4 10,-2 3,3 3,7 1,10 -7,10 -16,18 -26,24 -2,0 -3,1 -5,0zm-91 -8c-2,0 -3,-1 -4,-2 -9,-8 -17,-17 -22,-28 -2,-3 0,-8 3,-9 4,-2 8,-1 10,3 4,9 10,17 18,23 3,3 3,7 1,10 -2,2 -4,3 -6,3zm44 19c-6,-1 -12,-2 -17,-4 -4,-1 -6,-5 -5,-9 1,-3 5,-5 9,-4 9,3 19,4 29,3 4,-1 8,2 8,6 1,4 -2,7 -6,8 -6,0 -12,0 -18,0z"/>
     <path class="fil2" d="M1256 712c-1,0 -1,0 -1,0 -4,-1 -6,-5 -5,-9l5 -16c1,-3 4,-5 7,-5 3,0 6,2 7,5l3 17c1,4 -1,8 -5,8 -2,1 -5,0 -6,-1 -2,1 -3,1 -5,1z"/>
     <path class="fil2" d="M1243 301c-2,0 -5,-2 -6,-4 -1,-4 0,-8 4,-10 11,-5 23,-8 36,-8 4,1 7,4 7,8 0,3 -3,7 -7,7 -10,0 -21,2 -30,6 -1,1 -3,1 -4,1zm93 20c-1,0 -3,-1 -4,-2 -7,-8 -15,-14 -25,-19 -3,-1 -5,-6 -3,-9 1,-4 5,-5 9,-4 11,6 21,13 29,23 3,3 3,7 0,10 -2,1 -4,2 -6,1zm-137 30c-1,-1 -1,-1 -2,-1 -3,-1 -5,-5 -4,-9 4,-12 10,-22 18,-32 3,-3 7,-3 10,0 3,2 4,7 1,10 -7,8 -12,17 -16,27 -1,3 -4,5 -7,5zm161 33c-3,0 -5,-2 -6,-5l-5 -26c-1,-2 -2,-5 -2,-7 -1,-4 1,-8 4,-9 4,-1 8,1 9,5 1,3 2,5 2,8l6 26c1,4 -2,7 -5,8 -1,0 -2,0 -3,0zm-181 32c-1,0 -1,0 -2,-1 -4,-1 -6,-5 -4,-8l10 -33c1,-4 5,-6 9,-5 3,1 5,5 4,9l-10 33c-1,3 -4,5 -7,5zm196 35c-3,0 -6,-2 -7,-5l-7 -34c-1,-4 2,-7 6,-8 4,-1 7,1 8,5l7 34c1,3 -1,7 -5,8 -1,0 -2,0 -2,0zm-217 30c0,0 -1,0 -1,0 -4,-2 -6,-5 -5,-9l10 -33c1,-4 5,-6 9,-4 4,1 6,5 5,8l-10 33c-1,3 -5,5 -8,5zm-20 65c-1,0 -1,0 -2,0 -3,-1 -5,-5 -4,-9l10 -33c1,-3 5,-5 9,-4 4,1 6,5 4,9l-10 32c-1,3 -4,5 -7,5zm-21 65c0,0 -1,0 -1,0 -4,-1 -6,-5 -5,-9l11 -32c1,-4 5,-6 8,-5 4,1 6,5 5,9l-10 32c-1,4 -4,6 -8,5zm-20 66c0,0 -1,-1 -1,-1 -4,-1 -6,-5 -5,-9l10 -32c1,-4 5,-6 9,-5 4,1 6,5 5,9l-11 33c-1,3 -4,5 -7,5zm-19 65l0 0c-4,0 -6,-4 -6,-7 1,-7 2,-13 4,-19l5 -16c1,-4 5,-6 9,-5 3,2 5,6 4,9l-5 16c-1,5 -2,11 -3,16 0,4 -4,7 -8,6zm158 35c-1,0 -2,0 -2,0 -4,-1 -6,-5 -5,-9l1 -2 10 -30c1,-4 5,-6 9,-5 3,1 5,5 4,9l-10 33c-1,3 -4,5 -7,4zm-138 29c-2,0 -3,-1 -5,-3 -8,-9 -14,-20 -17,-32 -2,-4 1,-8 4,-9 4,-1 8,1 9,5 3,10 8,19 15,27 3,3 2,8 -1,10 -1,1 -3,2 -5,2zm93 21c-2,0 -5,-2 -6,-4 -1,-4 0,-8 4,-10 9,-4 18,-10 25,-18 2,-3 7,-3 10,-1 3,3 3,8 0,10 -8,10 -18,17 -29,22 -1,1 -3,1 -4,1zm-40 7c-6,-1 -13,-2 -19,-4 -3,-2 -6,-3 -9,-4 -4,-2 -5,-6 -4,-10 2,-3 6,-5 10,-3 2,1 5,2 7,3 8,3 15,4 23,4 4,0 7,3 7,7 0,4 -3,7 -7,7 -3,0 -5,0 -8,0z"/>
     <path class="fil2" d="M1112 753c-1,-8 -1,-17 2,-25l1 -4 3 -9 2 -9 3 -9 3 -9 3 -9 3 -9 3 -9 2 -9 3 -9 3 -9 3 -9 3 -9 2 -9 3 -9 3 -9 3 -9 3 -9 3 -10 2 -9 3 -9 3 -9 3 -9 3 -9 3 -9 2 -9 3 -9 3 -9 3 -9 3 -9 3 -9 2 -9 3 -9 3 -9 3 -9 3 -9 3 -9 2 -9 3 -9 3 -9 3 -9 2 -8c0,-1 1,-1 1,-1 0,-3 1,-5 2,-7 1,-1 2,-3 3,-4 0,-1 1,-2 2,-3 1,-1 1,-2 2,-3 1,-1 2,-2 2,-3 1,-1 2,-1 2,-2 1,-1 2,-1 3,-2 0,0 1,-1 2,-1 0,-1 1,-1 2,-2 1,0 1,-1 2,-1 1,-1 1,-1 2,-1 1,-1 1,-1 2,-1 1,-1 1,-1 2,-1 1,-1 2,-1 2,-1 1,0 2,-1 2,-1 1,0 2,0 2,0 1,-1 2,-1 2,-1 1,0 2,0 2,0 1,0 2,0 2,-1 1,0 2,0 2,0 1,0 2,0 2,0 1,0 2,0 2,0 1,0 1,0 2,0l0 0c1,0 1,0 2,0 1,0 1,0 2,1 1,0 1,0 2,0 1,0 1,0 2,0 1,0 1,1 2,1 0,0 1,0 2,0 0,0 1,1 2,1 0,0 1,0 2,1 0,0 1,0 1,0 1,1 2,1 2,1 1,1 2,1 2,1 1,1 1,1 2,2 1,0 1,0 2,1 0,0 1,1 2,1 0,1 1,1 2,2 0,0 1,1 1,1 1,1 2,2 2,2 1,1 1,1 2,2 0,1 1,2 2,2 0,1 1,2 1,3 1,1 2,2 2,3 1,1 1,2 2,3 0,1 1,2 1,4 1,1 1,3 2,4 0,1 0,2 1,3l0 3 2 7 1 6 1 6 2 7 1 6 1 6 2 7 1 6 2 6 1 7 1 6 2 6 1 7 1 6 2 6 1 7 1 6 2 6 1 7 1 6 2 6 1 7 2 6 1 6 1 7 2 6 1 6 1 7 2 6 1 6 1 7 2 6 1 6 2 7 1 6 1 6 2 7 1 6 3 -6 2 -6 3 -6 2 -6 3 -6 2 -6 3 -6 2 -6 3 -6 2 -6 3 -6 2 -6 3 -6 2 -6 3 -6 3 -5 2 -6 3 -6 2 -6 3 -6 2 -6 3 -6 2 -6 3 -6 2 -6 3 -6 2 -6 3 -6 2 -6 3 -6 3 -6 2 -6 3 -6 2 -6 3 -6 2 -6 3 -6 2 -6 1 -2c1,-1 1,-2 2,-3 0,-2 1,-3 2,-5 1,-1 2,-2 2,-3 1,-1 2,-2 3,-3 0,-1 1,-1 2,-2 1,-1 1,-2 2,-2 1,-1 1,-1 2,-2 1,-1 2,-1 2,-2 1,0 2,-1 2,-1 1,-1 2,-1 2,-1 1,-1 2,-1 3,-2 0,0 1,0 2,-1 0,0 1,0 2,0 0,-1 1,-1 2,-1 0,0 1,-1 2,-1 0,0 1,0 2,0 0,-1 1,-1 2,-1 0,0 1,0 2,0 0,0 1,0 2,-1 0,0 1,0 2,0 0,0 1,0 2,0 0,0 1,0 2,0 0,0 1,0 2,0 0,0 1,0 2,0 0,0 1,1 2,1l0 0c0,0 1,0 1,0 1,0 2,0 2,0 1,0 2,1 2,1 1,0 2,0 2,0 1,1 1,1 2,1 1,0 1,1 2,1 1,0 1,0 2,1 1,0 1,0 2,1 0,0 1,0 2,1 0,0 1,0 1,1 1,0 2,1 2,1 1,0 2,1 2,1 1,1 1,1 2,2 1,1 1,1 2,2 0,0 1,1 2,1 0,1 1,2 1,3 1,0 2,1 2,2 1,1 1,1 2,2 0,1 1,2 2,3 0,1 1,2 1,3 1,2 1,3 2,4 0,2 1,3 1,5 1,2 1,4 2,7 0,0 0,0 0,1l1 8 1 9 1 10 1 9 1 10 1 9 1 9 1 10 1 9 1 10 1 9 1 9 1 10 2 9 1 10 1 9 1 10 1 9 1 9 1 10 1 9 1 10 1 9 1 9 1 10 1 9 1 10 1 9 2 9 1 10 1 9 1 10 1 9 1 9 1 10 1 9 1 10 1 9 1 10 1 9 1 9 1 4c1,9 0,18 -3,25 -1,2 -2,4 -3,6 -1,1 -1,3 -2,4 -1,1 -2,2 -3,3 0,1 -1,2 -2,3 0,1 -1,2 -2,2 -1,1 -1,2 -2,2 -1,1 -1,2 -2,2 -1,1 -2,1 -2,2 -1,0 -2,1 -2,1 -1,1 -2,1 -3,1 0,1 -1,1 -2,2 0,0 -1,0 -2,1 0,0 -1,0 -2,0 0,1 -1,1 -2,1 0,0 -1,1 -2,1 0,0 -1,0 -2,0 0,1 -1,1 -2,1 0,0 -1,0 -2,0 0,0 0,0 -1,0 0,0 0,0 -1,0 0,0 -1,1 -2,1 0,0 -1,0 -2,0 0,0 -1,0 -2,0 0,0 -1,0 -2,0 0,0 -1,0 -1,-1l-1 0c0,0 -1,0 -2,0 0,0 -1,0 -1,0 -1,0 -2,0 -2,-1 -1,0 -2,0 -2,0 -1,0 -2,0 -2,-1 -1,0 -2,0 -2,0 -1,-1 -1,-1 -2,-1 -1,0 -1,-1 -2,-1 -1,0 -1,-1 -2,-1 0,0 -1,-1 -2,-1 0,0 -1,-1 -2,-1 0,-1 -1,-1 -1,-1 -1,-1 -2,-1 -2,-2 -1,0 -1,-1 -2,-1 -1,-1 -1,-1 -2,-2 0,-1 -1,-1 -2,-2 0,-1 -1,-1 -1,-2 -1,-1 -2,-2 -2,-2 -1,-1 -1,-2 -2,-3 0,-1 -1,-2 -2,-3 0,-1 -1,-2 -1,-3 -1,-1 -1,-3 -2,-4 0,-2 -1,-3 -1,-5 -1,-2 -1,-4 -1,-7l-1 0 -1 -10 -1 -9 -1 -9 -1 -10 -1 -9 -1 -10 -1 -9 -1 -9 -1 -10 -1 -9 -1 -10 -1 -9 -1 -9 -1 -10 -2 -9 -1 -10 -1 -9 -1 -10 -1 -9 -1 -9 -1 -10 -1 -8 0 1 -3 6 -2 6 -3 6 -2 6 -3 6 -2 6 -3 6 -3 6 -2 6 -3 6 -2 6 -3 6 -2 6 -3 6 -2 6 -3 6 -2 6 -3 6 -2 5 -3 6 -2 6 -3 6 -3 6 -2 6 -3 6 -2 6 -3 6 -2 6 -3 6 -2 6 -3 6 -2 6 -3 6 -1 3c-1,1 -1,2 -1,3 -1,1 -2,3 -3,4 0,1 -1,2 -2,3 -1,1 -1,2 -2,3 -1,1 -2,2 -2,3 -1,0 -2,1 -3,2 0,0 -1,1 -2,2 0,0 -1,1 -2,1 -1,1 -1,1 -2,2 -1,0 -1,1 -2,1 -1,0 -1,1 -2,1 -1,1 -2,1 -2,1 -1,0 -2,1 -2,1 -1,0 -2,1 -2,1 -1,0 -2,0 -2,1 -1,0 -2,0 -2,0 -1,0 -2,0 -2,1 -1,0 -2,0 -2,0 -1,0 -2,0 -2,0 -1,0 -2,0 -2,0 -1,0 -2,0 -2,0 -1,1 -2,1 -2,1 -1,-1 -2,-1 -2,-1 -1,0 -2,0 -2,0l0 0c-1,0 -1,0 -2,0 -1,0 -1,0 -2,0 -1,0 -1,0 -2,-1 -1,0 -1,0 -2,0 -1,0 -1,0 -2,-1 0,0 -1,0 -2,0 0,-1 -1,-1 -2,-1 0,0 -1,-1 -2,-1 0,0 -1,-1 -1,-1 -1,0 -2,-1 -2,-1 -1,0 -2,-1 -2,-1 -1,0 -1,-1 -2,-1 -1,-1 -1,-1 -2,-2 0,0 -1,-1 -2,-1 0,-1 -1,-1 -1,-2 -1,0 -2,-1 -2,-2 -1,0 -1,-1 -2,-2 -1,0 -1,-1 -2,-2 0,-1 -1,-2 -1,-2 -1,-1 -2,-2 -2,-3 -1,-1 -1,-2 -2,-3 0,-2 -1,-3 -1,-4 -1,-2 -2,-3 -2,-5 0,-1 0,-2 -1,-3l0 -3 -2 -6 -1 -7 -1 -6 -2 -6 -1 -7 -1 -6 -2 -6 -1 -7 -2 -6 -1 -6 -1 -7 -2 -6 -1 -6 -1 -7 -2 -6 -1 -6 -1 -7 -2 -6 -1 -6 -2 -7 -1 -6 -1 -6 -2 -7 -1 -6 -1 -6 -2 -7 -1 -6 -1 -6 -2 -7 -1 -6 -2 -6 -1 -7 -1 -6 0 -1 -3 8 -3 9 -2 9 -3 9 -3 9 -3 9 -3 9 -3 9 -2 9 -3 9 -3 9 -3 9 -3 9 -3 9 -2 9 -3 9 -3 9 -3 9 -3 9 -3 9 -2 9 -3 10 0 0c-1,2 -2,4 -3,6 -1,2 -1,3 -2,5 -1,1 -2,2 -3,4 0,1 -1,2 -2,2 0,1 -1,2 -2,3 -1,1 -1,1 -2,2 -1,1 -2,1 -2,2 -1,1 -2,1 -2,2 -1,0 -2,1 -3,1 0,1 -1,1 -2,2 0,0 -1,0 -2,1 0,0 -1,0 -2,1 0,0 -1,0 -2,1 -1,0 -1,0 -2,1 -1,0 -1,0 -2,0 -1,0 -1,1 -2,1 -1,0 -1,0 -2,0 -1,0 -1,1 -2,1 -1,0 -1,0 -2,0 -1,0 -1,0 -2,0 -1,0 -1,0 -2,0 -1,0 -1,0 -2,0 -1,0 -1,0 -2,0 0,0 -1,0 -2,0 0,0 -1,0 -2,0 0,0 -1,0 -2,0 0,0 -1,-1 -2,-1 0,0 -1,0 -2,0 0,0 -1,-1 -1,-1 -1,0 -1,0 -2,0 0,0 0,0 0,0 -1,-1 -2,-1 -2,-1 -1,0 -1,-1 -2,-1 -1,0 -1,0 -2,-1 -1,0 -1,0 -2,-1 0,0 -1,-1 -2,-1 0,0 -1,-1 -2,-1 0,-1 -1,-1 -1,-2 -1,0 -2,0 -2,-1 -1,-1 -1,-1 -2,-2 -1,0 -1,-1 -2,-1 0,-1 -1,-2 -2,-2 0,-1 -1,-2 -1,-3 -1,0 -2,-1 -2,-2 -1,-1 -1,-2 -2,-3 0,-1 -1,-2 -1,-3 -1,-1 -2,-2 -2,-4 -1,-1 -1,-2 -2,-4 0,-2 -1,-4 -1,-6z"/>
    </g>
    <g id="N">
     <path class="fil1" d="M2606 650c-4,-1 -7,-4 -6,-8l1 -17c1,-3 3,-6 6,-6 3,-1 6,0 7,3l9 14c2,4 1,8 -2,10 -3,2 -6,1 -8,0 -1,2 -4,4 -7,4z"/>
     <path class="fil1" d="M2512 305c-2,0 -4,-2 -5,-4 -2,-3 -1,-8 3,-9 6,-4 13,-7 20,-9 5,-1 10,-2 15,-2 3,0 7,3 7,6 1,4 -2,8 -6,8 -4,0 -8,1 -12,2 -6,2 -12,4 -17,7 -2,1 -3,1 -5,1zm94 12c-2,0 -3,-1 -4,-2 -8,-7 -17,-13 -26,-16 -4,-1 -6,-5 -4,-9 1,-4 5,-6 9,-4 11,4 22,10 30,19 3,3 3,7 1,10 -2,1 -4,2 -6,2zm37 56c-2,0 -4,-1 -5,-3l-18 -29c-2,-4 -1,-8 3,-10 3,-2 7,-1 9,2l18 29c2,4 1,8 -3,10 -1,1 -3,1 -4,1zm-171 -16c0,0 0,-1 -1,-1 -4,-1 -6,-5 -5,-8 3,-12 9,-23 16,-33 3,-3 7,-3 10,-1 3,2 4,7 2,10 -7,8 -11,17 -14,27 -1,4 -4,6 -8,6zm206 74c-3,-1 -5,-2 -6,-4l-17 -29c-2,-3 -1,-7 2,-9 4,-2 8,-1 10,2l17 29c2,3 1,8 -2,10 -1,0 -3,1 -4,1zm-213 -8c-4,0 -7,-3 -7,-7l4 -34c0,-4 4,-7 7,-6 4,0 7,4 7,8l-3 33c-1,4 -4,7 -8,6zm247 65c-2,0 -4,-1 -5,-3l-18 -29c-2,-3 0,-8 3,-10 3,-2 8,-1 10,3l17 29c2,3 1,7 -2,9 -2,1 -3,1 -5,1zm-254 2c-3,0 -6,-4 -6,-7l3 -34c1,-4 4,-7 8,-6 4,0 7,4 6,7l-3 34c0,4 -4,7 -8,6zm-6 67c-4,0 -7,-4 -6,-7l3 -34c0,-4 4,-7 8,-6 3,0 6,4 6,7l-3 34c-1,4 -4,7 -8,6zm-6 67c-4,0 -7,-4 -7,-7l3 -34c1,-4 4,-7 8,-6 4,0 7,3 7,7l-4 34c0,4 -4,7 -7,6zm-7 67c-4,0 -7,-4 -6,-8l3 -33c0,-4 4,-7 8,-6 4,0 6,3 6,7l-3 34c0,4 -4,7 -8,6zm161 25c-4,0 -7,-3 -7,-7l3 -34c1,-4 4,-6 8,-6 4,0 7,4 7,8l-4 33c0,4 -4,7 -7,6zm-167 42c-4,0 -6,-3 -6,-7 0,-2 0,-5 0,-7l3 -27c0,-4 3,-7 7,-6 4,0 7,3 7,7l-3 27c0,2 0,4 0,6 0,4 -4,7 -7,7l-1 0zm159 25c-1,0 -1,0 -2,0 -3,-1 -6,-5 -4,-9 1,-5 2,-10 2,-15l2 -17c0,-4 4,-7 8,-6 4,0 6,4 6,8l-2 17c0,6 -1,11 -3,17 -1,3 -4,6 -7,5zm-135 36c-1,0 -3,-1 -4,-2 -9,-9 -15,-19 -20,-30 -1,-4 0,-8 4,-10 4,-1 8,1 9,4 4,10 10,19 17,26 3,3 3,7 0,10 -2,2 -4,2 -6,2zm93 15c-2,0 -4,-2 -5,-4 -2,-3 -1,-8 3,-10 9,-4 17,-11 23,-19 3,-3 7,-3 10,-1 3,3 4,7 1,10 -8,10 -17,17 -28,23 -1,1 -3,1 -4,1zm-44 8c-8,0 -15,-2 -23,-5 -4,-1 -5,-6 -4,-9 2,-4 6,-6 9,-4 10,3 20,5 30,5 4,-1 8,2 8,6 0,4 -3,7 -7,8 -4,0 -9,0 -13,-1z"/>
     <path class="fil1" d="M2738 532c-2,0 -4,-1 -5,-3l-9 -15c-2,-3 -1,-8 3,-10 2,-1 5,-1 8,1 1,-3 3,-4 6,-4 4,0 7,4 7,8l-2 17c0,3 -2,5 -5,6 -1,0 -2,0 -3,0z"/>
     <path class="fil1" d="M2861 327c-1,0 -1,0 -2,0 -9,-4 -20,-6 -30,-5 -4,0 -7,-3 -7,-7 -1,-4 2,-7 6,-7 13,-1 25,1 36,5 4,2 6,6 4,10 -1,3 -4,4 -7,4zm-91 25c-1,0 -3,-1 -4,-2 -3,-2 -3,-7 -1,-10 8,-9 18,-17 28,-23 4,-1 8,0 10,3 2,4 0,8 -3,10 -9,5 -17,11 -24,19 -1,2 -4,3 -6,3zm137 22c-2,-1 -5,-2 -6,-5 -4,-10 -9,-18 -16,-26 -3,-2 -3,-7 0,-10 2,-2 7,-2 10,0 8,9 15,19 19,31 2,3 0,8 -4,9 -1,0 -2,1 -3,1zm-157 41c-4,-1 -7,-4 -7,-8l2 -17c1,-6 2,-12 3,-18 1,-3 5,-6 9,-4 4,1 6,5 5,8 -2,5 -2,10 -3,15l-2 17c0,4 -3,7 -7,7zm160 25c-4,-1 -7,-4 -6,-8l2 -27c0,-2 1,-4 1,-6 0,-4 3,-7 7,-7 4,0 7,4 7,7 0,3 0,5 -1,8l-2 26c-1,4 -4,7 -8,7zm-167 42c-4,-1 -6,-4 -6,-8l3 -34c0,-4 4,-6 8,-6 4,0 7,4 6,8l-3 33c0,4 -4,7 -8,7zm161 25c-4,-1 -7,-4 -7,-8l4 -33c0,-4 3,-7 7,-7 4,1 7,4 7,8l-4 33c0,4 -3,7 -7,7zm-7 67c-4,-1 -6,-4 -6,-8l3 -33c0,-4 4,-7 8,-7 4,1 7,4 6,8l-3 33c0,4 -4,7 -8,7zm-6 67c-4,-1 -7,-4 -7,-8l4 -33c0,-4 4,-7 7,-7 4,1 7,4 7,8l-3 33c-1,4 -4,7 -8,7zm-7 67c-3,-1 -6,-4 -6,-8l3 -34c1,-3 4,-6 8,-6 4,0 7,4 6,8l-3 33c0,4 -4,7 -8,7zm-233 -3c-2,0 -4,-1 -5,-3l-17 -29c-3,-3 -1,-8 2,-10 3,-2 8,-1 10,3l17 28c2,4 1,8 -2,10 -2,1 -3,1 -5,1zm227 70c-4,-1 -7,-4 -6,-8l3 -34c0,-3 4,-6 8,-6 3,0 6,4 6,8l-3 33c-1,4 -4,7 -8,7zm-192 -12c-2,0 -4,-2 -6,-4l-17 -28c-2,-4 -1,-8 3,-10 3,-2 7,-1 9,2l18 29c2,3 1,8 -3,10 -1,1 -3,1 -4,1zm34 57c-2,0 -4,-1 -5,-3l-17 -29c-2,-3 -1,-7 2,-9 4,-3 8,-1 10,2l17 29c2,3 1,7 -2,9 -2,1 -3,2 -5,1zm139 18c-1,0 -3,-1 -4,-2 -3,-2 -3,-6 -1,-9 6,-9 11,-18 13,-28 1,-4 5,-6 9,-5 4,1 6,5 5,9 -3,12 -8,23 -16,32 -1,2 -4,3 -6,3zm-90 27c-1,0 -2,0 -2,0 -12,-4 -22,-11 -31,-19 -3,-3 -3,-8 0,-10 2,-3 7,-3 10,-1 7,7 16,13 26,16 3,2 5,6 4,9 -1,4 -4,5 -7,5zm33 4c-4,0 -6,-3 -7,-6 0,-4 3,-7 7,-8 4,0 8,-1 12,-2 6,-1 11,-3 17,-7 3,-1 8,0 9,3 2,4 1,8 -2,10 -7,3 -14,6 -21,8 -5,1 -9,2 -14,2 -1,1 -1,1 -1,0z"/>
     <path class="fil1" d="M2467 748l0 0 36 -381c0,-5 1,-9 3,-13 0,-1 1,-3 2,-5 0,-1 1,-2 1,-3 1,-1 2,-2 2,-3 1,-1 1,-2 2,-3 1,0 1,-1 2,-2 0,0 1,-1 1,-2 1,0 1,-1 2,-1 1,-1 1,-2 2,-2 0,-1 1,-1 1,-1 1,-1 1,-1 2,-2 0,0 1,-1 1,-1 1,0 2,-1 2,-1 1,0 1,-1 2,-1 0,0 1,-1 1,-1 1,0 1,0 2,-1 0,0 1,0 1,0 1,-1 1,-1 2,-1 0,0 1,-1 1,-1 1,0 1,0 2,0 1,0 1,-1 2,-1 0,0 1,0 1,0l0 0c1,0 1,0 2,-1 0,0 1,0 1,0 1,0 1,0 2,0 0,0 1,0 1,0 1,0 1,0 2,0 0,-1 1,-1 1,-1 1,0 1,0 2,0 0,0 1,0 1,0 1,0 1,0 2,0 0,0 1,0 1,0 1,0 1,1 2,1 0,0 1,0 1,0 1,0 1,0 2,0 0,0 0,0 1,0 0,0 1,0 1,1 1,0 1,0 2,0 0,0 1,0 1,0 1,1 1,1 2,1 0,0 1,0 1,0 1,1 1,1 2,1 0,0 1,0 1,1 1,0 1,0 2,0 0,1 0,1 1,1 0,0 1,1 1,1 1,0 1,0 2,1 0,0 1,0 1,1 1,0 1,0 2,1 0,0 0,0 1,1 0,0 1,0 1,1 1,0 1,1 2,1 0,1 1,1 1,1 1,1 1,1 1,2 1,0 1,1 2,1 0,1 1,1 1,2 1,1 1,1 1,2 1,0 1,1 2,2 0,0 0,0 0,1l1 1 1 2 2 2 1 2 1 2 1 3 2 2 1 2 1 2 2 2 1 2 1 2 1 3 2 2 1 2 1 2 2 2 1 2 1 2 1 3 2 2 1 2 1 2 2 2 1 2 1 2 1 3 2 2 1 2 1 2 2 2 1 2 1 2 1 2 2 3 1 2 1 2 2 2 1 2 1 2 1 2 2 3 1 2 1 2 2 2 1 2 1 2 1 2 2 3 1 2 1 2 1 2 2 2 1 2 1 2 2 3 1 2 1 2 1 2 2 2 1 2 1 2 2 3 1 2 1 2 1 2 2 2 1 2 1 2 2 2 1 3 1 2 1 2 2 2 1 2 1 2 2 2 1 3 1 2 1 2 2 2 1 2 1 2 2 2 1 3 1 2 1 2 2 2 1 2 1 2 2 2 1 3 1 2 1 2 2 2 1 2 1 2 2 2 1 3 1 2 1 2 2 2 1 2 1 2 2 2 1 2 1 3 1 2 2 2 1 2 1 2 2 2 1 2 1 3 1 2 2 2 1 2 1 2 2 2 1 2 1 3 1 2 2 2 1 2 1 2 2 2 1 2 1 3 1 2 2 2 1 2 1 2 1 2 22 -233c1,-3 1,-5 2,-8 0,-2 1,-4 2,-7 0,-1 1,-3 2,-4 0,-1 1,-2 2,-3 0,-1 1,-2 1,-3 1,-1 1,-2 2,-2 1,-1 1,-2 2,-3 0,0 1,-1 1,-1 1,-1 1,-2 2,-2 1,-1 1,-1 2,-2 0,0 1,-1 1,-1 1,0 1,-1 2,-1 0,-1 1,-1 1,-1 1,-1 2,-1 2,-1 1,-1 1,-1 2,-1 0,-1 1,-1 1,-1 1,-1 1,-1 2,-1 0,0 1,-1 1,-1 1,0 1,0 2,0 0,-1 1,-1 1,-1 1,0 1,0 2,-1 0,0 1,0 1,0 1,0 2,0 2,0 1,0 1,-1 2,-1 0,0 1,0 1,0 1,0 1,0 2,0 0,0 1,0 1,0 1,0 1,-1 2,-1 0,0 1,0 1,0 1,0 1,0 2,0 0,0 1,0 1,0 1,0 1,0 2,0 0,0 1,0 1,0l1 0c0,1 0,1 1,1 0,0 0,0 1,0 0,0 1,0 1,0 1,0 1,0 2,0 0,0 1,1 1,1 1,0 1,0 2,0 0,0 1,0 1,1 1,0 1,0 2,0 0,0 1,0 1,1 1,0 1,0 2,0 0,0 1,1 1,1 0,0 1,0 1,0 1,1 1,1 2,1 0,1 1,1 1,1 1,0 1,1 2,1 0,0 1,1 1,1 1,0 1,1 1,1 1,0 1,1 2,1 0,0 1,1 1,1 1,1 1,1 2,2 0,0 0,0 1,1 0,0 1,1 1,1 1,1 1,1 2,2 0,0 1,1 1,2 0,0 1,1 1,1 1,1 1,2 2,2 0,1 0,2 1,3 0,0 1,1 1,2 1,1 1,2 1,3 1,1 1,2 1,3 1,1 1,3 2,4 0,2 0,3 1,5 0,4 0,8 0,11l0 1 -37 383 0 0c0,4 -1,8 -2,11 -1,2 -2,3 -2,5 -1,1 -1,2 -2,4 -1,1 -1,2 -2,3 0,0 -1,1 -2,2 0,1 -1,2 -1,2 -1,1 -1,2 -2,2 0,1 -1,1 -2,2 0,0 -1,1 -1,1 -1,1 -1,1 -2,2 0,0 -1,1 -1,1 -1,1 -2,1 -2,1 -1,1 -1,1 -2,1 0,1 -1,1 -1,1 -1,1 -1,1 -2,1 0,1 -1,1 -1,1 -1,0 -1,1 -2,1 0,0 -1,0 -2,1 0,0 -1,0 -1,0 -1,0 -1,1 -2,1 0,0 -1,0 -1,0 -1,0 -1,0 -2,1l0 0c0,0 -1,0 -1,0 -1,0 -1,0 -2,0 0,0 -1,0 -1,1 -1,0 -1,0 -2,0 0,0 -1,0 -1,0 -1,0 -1,0 -2,0 0,0 -1,0 -1,0 -1,0 -1,0 -2,0 0,0 -1,0 -1,0 -1,0 -1,0 -2,0 0,0 0,0 -1,0l0 0c-1,0 -1,0 -2,0 0,0 -1,0 -1,-1 -1,0 -1,0 -2,0 0,0 -1,0 -1,0 -1,0 -1,0 -1,-1 -1,0 -1,0 -2,0 0,0 -1,0 -1,0 -1,-1 -1,-1 -2,-1 0,0 -1,0 -1,-1 -1,0 -1,0 -2,0 0,0 -1,-1 -1,-1 -1,0 -1,0 -2,-1 0,0 0,0 -1,0 0,-1 -1,-1 -1,-1 -1,-1 -1,-1 -2,-1 0,-1 -1,-1 -1,-1 -1,-1 -1,-1 -2,-1 0,-1 0,-1 -1,-1 0,-1 -1,-1 -1,-2 -1,0 -1,-1 -2,-1 0,0 -1,-1 -1,-1 0,-1 -1,-1 -1,-2 -1,-1 -1,-1 -2,-2 0,0 -1,-1 -1,-1 0,-1 -1,-2 -1,-2 0,-1 -1,-1 -1,-1l-1 -1 -1 -3 -1 -2 -1 -2 -2 -2 -1 -2 -1 -2 -2 -2 -1 -3 -1 -2 -1 -2 -2 -2 -1 -2 -1 -2 -2 -2 -1 -3 -1 -2 -1 -2 -2 -2 -1 -2 -1 -2 -2 -2 -1 -3 -1 -2 -1 -2 -2 -2 -1 -2 -1 -2 -2 -2 -1 -3 -1 -2 -1 -2 -2 -2 -1 -2 -1 -2 -2 -2 -1 -2 -1 -3 -1 -2 -2 -2 -1 -2 -1 -2 -2 -2 -1 -2 -1 -3 -1 -2 -2 -2 -1 -2 -1 -2 -2 -2 -1 -2 -1 -3 -1 -2 -2 -2 -1 -2 -1 -2 -2 -2 -1 -2 -1 -3 -1 -2 -2 -2 -1 -2 -1 -2 -2 -2 -1 -2 -1 -3 -1 -2 -2 -2 -1 -2 -1 -2 -2 -2 -1 -2 -1 -2 -1 -3 -2 -2 -1 -2 -1 -2 -1 -2 -2 -2 -1 -2 -1 -3 -2 -2 -1 -2 -1 -2 -1 -2 -2 -2 -1 -2 -1 -3 -2 -2 -1 -2 -1 -2 -1 -2 -2 -2 -1 -2 -1 -3 -2 -2 -1 -2 -1 -2 -1 -2 -2 -2 -1 -2 -1 -3 -2 -2 -1 -2 -1 -2 -1 -2 -2 -2 -1 -2 -1 -3 -2 -2 -1 -2 -1 -2 -1 -2 -2 -2 -1 -2 -1 -2 -2 -3 -1 -2 -1 -2 -1 -2 -2 -2 -1 -2 -1 -2 -2 -3 -1 -2 -1 -2 -1 -2 -2 -2 -1 -2 -1 -2 -2 -3 -1 -2 -1 -1 -22 233c0,2 -1,5 -1,7 -1,3 -2,5 -2,7 -1,2 -2,3 -2,4 -1,2 -1,3 -2,4 -1,1 -1,2 -2,3 0,0 -1,1 -2,2 0,1 -1,1 -1,2 -1,1 -1,1 -2,2 0,0 -1,1 -2,2 0,0 -1,1 -1,1 -1,1 -1,1 -2,1 0,1 -1,1 -1,2 -1,0 -2,0 -2,1 -1,0 -1,1 -2,1 0,0 -1,1 -1,1 -1,0 -1,0 -2,1 0,0 -1,0 -1,0 -1,1 -1,1 -2,1 0,0 -1,1 -1,1 -1,0 -2,0 -2,0 -1,1 -1,1 -2,1 0,0 -1,0 -1,0 -1,1 -1,1 -2,1 0,0 -1,0 -1,0 -1,0 -1,0 -2,0 0,1 -1,1 -1,1 -1,0 -1,0 -2,0 0,0 -1,0 -1,0 -1,0 -1,0 -2,0 0,0 -1,0 -1,0 -1,0 -1,0 -2,0 0,0 -1,0 -1,0 -1,0 -1,0 -2,0l0 0c0,0 -1,0 -1,0 -1,0 -1,0 -2,0 0,0 -1,-1 -1,-1 -1,0 -1,0 -2,0 0,0 0,0 -1,0 0,0 -1,0 -1,-1 -1,0 -1,0 -2,0 0,0 -1,0 -1,-1 -1,0 -1,0 -2,0 0,0 -1,0 -1,-1 -1,0 -1,0 -2,0 0,-1 -1,-1 -1,-1 -1,0 -1,-1 -1,-1 -1,0 -1,0 -2,-1 0,0 -1,0 -1,-1 -1,0 -1,0 -2,-1 0,0 -1,0 -1,-1 -1,0 -1,0 -1,-1 -1,0 -1,0 -2,-1 0,0 -1,-1 -1,-1 -1,-1 -1,-1 -2,-1 0,-1 0,-1 -1,-2 0,0 -1,-1 -1,-2 -1,0 -1,-1 -2,-1 0,-1 0,-1 -1,-2 0,-1 -1,-1 -1,-2 -1,-1 -1,-2 -1,-2 -1,-1 -1,-2 -2,-3 0,-1 -1,-2 -1,-3 0,-1 -1,-2 -1,-3 -1,-1 -1,-2 -1,-4 -1,-1 -1,-3 -1,-5 -1,-4 -1,-8 0,-12z"/>
    </g>
    <g id="I">
     <path class="fil3" d="M2988 444c-3,1 -6,0 -7,-2 -2,-3 -1,-6 2,-8 11,-5 23,-9 35,-10l0 0c4,-1 7,1 8,4 0,3 -3,6 -7,7 -10,1 -20,4 -29,8 -1,1 -2,1 -2,1zm93 4c-2,0 -4,-1 -5,-2 -8,-5 -17,-8 -27,-10 -3,-1 -5,-4 -4,-7 1,-3 5,-5 9,-4 12,2 22,7 31,13 3,2 3,5 1,8 -2,1 -3,1 -5,2zm-132 39c-1,0 -2,0 -2,0 -4,0 -6,-3 -6,-6 3,-10 8,-18 15,-26 3,-3 7,-4 10,-2 3,1 4,5 2,7 -6,7 -11,15 -13,23 -1,2 -3,4 -6,4zm160 5c-4,1 -8,-1 -8,-4l-1 -4c-1,-7 -3,-13 -6,-19 -2,-3 0,-6 3,-8 4,-1 8,0 9,2 5,7 7,15 8,23l1 4c0,3 -3,6 -6,6zm-158 47c-4,1 -7,-1 -8,-4l-3 -26c0,-3 3,-6 6,-7 4,0 8,2 8,5l3 26c1,3 -2,6 -6,6zm164 5c-4,1 -7,-1 -8,-4l-3 -26c0,-3 3,-6 6,-7 4,0 8,2 8,5l3 26c1,3 -2,6 -6,6zm-157 47c-4,0 -8,-2 -8,-5l-3 -26c-1,-3 2,-5 6,-6 4,0 7,2 8,5l3 25c0,3 -2,6 -6,7zm164 5c-4,0 -8,-2 -8,-5l-3 -26c-1,-3 2,-5 6,-6 4,0 7,2 8,5l3 25c0,3 -2,6 -6,7zm-158 46c-4,1 -7,-1 -7,-4l-4 -26c0,-3 3,-6 7,-6 4,-1 7,1 7,4l4 26c0,3 -3,6 -7,6zm164 5c-3,1 -7,-1 -7,-4l-4 -26c0,-3 3,-6 7,-6 4,-1 7,1 7,4l4 26c0,3 -3,6 -7,6zm-157 47c-4,1 -7,-1 -8,-4l-3 -26c0,-3 2,-6 6,-7 4,0 8,2 8,5l3 26c1,3 -2,6 -6,6zm164 5c-4,1 -7,-1 -8,-4l-3 -26c0,-3 2,-6 6,-7 4,0 8,2 8,5l3 26c1,3 -2,6 -6,6zm-157 47c-4,0 -8,-2 -8,-5l-3 -26c-1,-3 2,-5 6,-6 4,0 7,2 8,5l3 25c0,3 -3,6 -6,7zm164 5c-4,0 -8,-2 -8,-5l-3 -26c-1,-3 2,-5 6,-6 4,0 7,2 8,5l3 25c0,3 -2,6 -6,7zm-158 46c-4,1 -7,-1 -8,-4l-3 -26c0,-3 3,-6 6,-6 4,-1 8,1 8,4l4 26c0,3 -3,6 -7,6zm160 6c-1,0 -2,0 -2,0 -4,-1 -7,-4 -6,-7 2,-6 3,-13 2,-19l-1 -5c0,-3 3,-6 7,-6 3,-1 7,1 7,4l1 5c1,8 0,15 -2,23 -1,2 -3,4 -6,5zm-132 39c-2,1 -4,0 -6,-1 -9,-6 -16,-13 -21,-22 -2,-2 0,-6 3,-7 4,-1 8,0 10,2 4,7 10,14 18,19 2,2 3,5 0,7 -1,1 -3,2 -4,2zm93 4c-2,0 -5,-1 -6,-3 -2,-2 -1,-6 2,-7 9,-5 16,-11 23,-17 2,-3 6,-4 9,-2 4,1 4,5 2,7 -7,9 -16,15 -27,21 -1,0 -2,1 -3,1zm-31 9l-1 0c-12,2 -24,2 -36,-1 -3,-1 -5,-4 -4,-7 1,-3 5,-4 9,-4 10,3 20,3 30,2 4,-1 7,1 8,4 0,3 -2,6 -6,6z"/>
     <path class="fil3" d="M3017 797c0,-2 0,-3 -1,-5l-37 -293c0,-1 0,-3 0,-5 0,0 0,-1 0,-2 0,0 0,-1 0,-1 0,-1 0,-1 0,-2 0,0 0,0 0,-1 0,0 0,-1 1,-1 0,0 0,-1 0,-1 0,0 0,0 0,-1 0,0 0,0 0,-1 0,0 1,0 1,0 0,-1 0,-1 0,-1 0,0 0,-1 0,-1l1 -1 0 0 0 -1 0 0 1 -1 0 -1 0 0 1 -1 0 0 0 -1 1 0 0 -1 0 0 1 -1 0 0 0 0 1 -1 0 0 0 -1 1 0 0 -1 0 0 1 0 0 -1 0 0 1 0 0 -1 0 0 1 0 0 -1 0 0 1 0 0 -1 0 0 1 0 0 -1 0 0 1 0 0 0 0 -1 1 0 0 0 0 0 1 -1 0 0 0 0 1 0 0 -1 0 0 1 0 0 0 1 -1 0 0 0 0 1 0 0 -1 0 0 1 0 0 0 0 0 1 -1 0 0 0 0 1 0 0 0 1 0 0 -1 0 0 1 0 0 0 0 0 1 0 0 -1 0 0 1 0 0 0 0 0 1 0 0 -1 1 0 0 0 0 0 1 0 0 0 0 0 1 0 0 -1 1 0 0 0 0 0 1 0 0 0 0 0 1 0 0 0 0 -1 1 0 0 0 1 0 0 0 0 0 1 0 0 0 0 0 1 0 0 0 1 0 0 -1 0 0 1 0 0 0 0 0 1 0 0 0 1 0 0 0 0 0 1 0 0 0 0 0 1 0 0 0 1 0 0 0 0 0 1 0 0 0 0 0 1 0 0 0 1 0 0 0 0 0 1 0 0 0 0 0 1 0 0 0 1 0 0 0 0 0 1 0 0 0 1 0 0 0 0 0 1 0 0 0 0 0 1 0 0 0 1 0 0 0 0 0 1 0 0 0 1 0 0 0 0 0 1 0 0 0 1 0 0 0 0 1 1 0 0 0 0 0 1 0 0 0 1 0 0 0 0 0 1 0 0 0 1 1 0 0 0 0 1 0 0 0 1 0 0 0 0 0 1 1 0 0 1 0 0 0 0 0 1 0 0 0 1 1 0 0 0 0 1 0 0 0 1 1 0 0 0 0 1 0 0 0 1 1 0 0 0 0 1 0 0 0 1 1 0 0 1 0 0 1 0 0 1 0 0 0 1 1 0 0 0 0 1 1 0 0 1 0 0 1 1 0 0 0 0 1 1 0 0 1 1 0 0 0 1 1 0 0c0,0 0,1 1,1l0 0 0 1c1,0 1,0 1,0l0 1c1,0 1,0 1,1 0,0 0,0 0,0 0,0 1,1 1,1 0,0 0,0 0,1 0,0 1,0 1,1 0,0 0,0 0,0 0,1 1,1 1,1 0,1 0,1 0,1 0,1 1,1 1,2 0,0 0,1 0,1 1,1 1,1 1,2 0,2 1,3 1,5l38 293c0,2 0,3 0,5 0,0 0,1 0,2 0,0 0,1 -1,1 0,1 0,1 0,2 0,0 0,1 0,1 0,0 0,1 0,1 0,0 0,1 0,1 -1,0 -1,1 -1,1 0,0 0,0 0,1 0,0 0,0 0,1l-1 0c0,0 0,1 0,1 0,0 0,0 0,1l0 0 -1 1 0 1c0,0 0,0 0,0l-1 1 0 0 0 1 -1 0 0 1 0 0 -1 1 0 0 0 1 -1 0 0 1 0 0 -1 0 0 1 0 0 -1 1 0 0 0 0 -1 1 0 0 0 0 -1 1 0 0 0 0 -1 1 0 0 0 0 -1 1 0 0 0 0 -1 1 0 0 0 0 -1 1 0 0 0 0 -1 0 0 1 0 0 -1 0 0 0 0 1 -1 0 0 0 0 0 -1 1 0 0 -1 0 0 0 0 0 -1 1 0 0 0 0 -1 0 0 0 0 1 -1 0 0 0 0 0 -1 0 0 1 -1 0 0 0 0 0 -1 0 0 0 0 1 -1 0 0 0 0 0 -1 0 0 0 -1 0 0 1 0 0 -1 0 0 0 0 0 -1 0 0 0 0 1 -1 0 0 0 -1 0 0 0 0 0 -1 0 0 0 0 0 -1 1 0 0 0 0 -1 0 0 0 -1 0 0 0 0 0 -1 0 0 0 0 0 -1 0 0 1 -1 0 0 0 0 0 -1 0 0 0 0 0 -1 0 0 0 -1 0 0 0 0 0 -1 0 0 0 0 0 -1 0 0 0 -1 0 0 0 0 0 -1 0 0 0 0 1 -1 0 0 0 -1 0 0 0 0 0 -1 0 0 0 -1 0 0 0 0 0 -1 0 0 0 0 0 -1 0 0 -1 -1 0 0 0 0 0 -1 0 0 0 -1 0 0 0 0 0 -1 0 0 0 0 0 -1 0 0 0 -1 0 0 0 0 0 -1 0 0 0 -1 0 0 0 0 -1 -1 0 0 0 -1 0 0 0 0 0 -1 0 0 0 0 0 -1 0 0 0 -1 -1 0 0 0 0 -1 0 0 0 -1 0 0 0 0 0 -1 -1 0 0 -1 0 0 0 0 0 -1 0 0 -1 -1 0 0 0 0 0 -1 0 0 0 -1 -1 0 0 -1 0 0 0 0 0 -1 -1 0 0 -1 0 0 0 0 -1 -1 0 0 0 -1 0 0 -1 0 0 -1 0 0 -1 -1 0 0 0 -1 0 0 -1 0 0 -1 0 0 -1 -1 0 0 -1 -1 0 0 0 0 -1 -1 0 0 -1 -1 0 0 -1 -1 0 0 -1 -1 0 0 -1c0,0 0,0 0,0 -1,-1 -1,-1 -1,-1 0,0 0,-1 0,-1 -1,0 -1,0 -1,-1 0,0 0,0 0,0 -1,-1 -1,-1 -1,-1 0,-1 0,-1 0,-1 -1,-1 -1,-1 -1,-1 0,-1 0,-1 0,-2 -1,0 -1,-1 -1,-1 0,-1 0,-1 -1,-2z"/>
    </g>
    <path class="fil4" d="M744 183c9,10 19,18 28,23 9,5 18,8 27,8 9,0 16,-2 21,-7 6,-4 8,-10 8,-16 0,-8 -2,-14 -7,-18 -5,-4 -15,-8 -32,-12 -23,-6 -39,-14 -48,-23 -10,-10 -14,-23 -14,-40 0,-21 7,-39 22,-53 15,-13 34,-20 58,-20 13,0 25,2 36,5 12,3 23,8 33,15l-20 44c-7,-6 -14,-10 -22,-13 -7,-3 -15,-5 -22,-5 -8,0 -14,2 -19,6 -5,3 -7,8 -7,13 0,6 2,10 6,14 4,3 12,7 24,10l3 0c26,7 43,15 51,23 6,5 10,12 13,20 3,7 4,16 4,25 0,24 -8,44 -24,58 -16,15 -38,22 -65,22 -16,0 -31,-3 -44,-8 -14,-5 -26,-14 -39,-25l29 -46z"/>
    <path id="1" class="fil4" d="M982 256l-59 0 0 -226 66 0c26,0 44,2 55,4 10,3 19,7 26,13 9,7 15,15 20,25 4,11 7,22 7,35 0,13 -3,25 -7,35 -4,11 -11,19 -20,26 -6,5 -14,8 -23,10 -9,2 -23,4 -43,4l-10 0 -12 0 0 74zm0 -124l12 0c15,0 26,-2 32,-6 6,-4 9,-11 9,-21 0,-9 -3,-16 -9,-20 -6,-4 -16,-6 -31,-6l-13 0 0 53z"/>
    <path id="2" class="fil4" d="M1174 172l63 0 -24 -75c0,-2 -1,-6 -3,-11 -1,-5 -2,-11 -4,-19 -2,5 -3,11 -5,16 -1,5 -2,10 -4,14l-23 75zm-89 84l81 -226 79 0 80 226 -63 0 -11 -40 -91 0 -12 40 -63 0z"/>
    <polygon id="3" class="fil4" points="1529,256 1323,256 1441,79 1347,79 1347,30 1542,30 1425,207 1529,207 "/>
    <polygon id="4" class="fil4" points="1569,256 1569,30 1633,30 1633,256 "/>
    <path id="5" class="fil4" d="M1923 144c0,16 -3,31 -9,45 -6,14 -15,27 -27,38 -12,11 -25,20 -40,26 -16,6 -32,9 -48,9 -17,0 -33,-3 -48,-9 -15,-6 -28,-15 -40,-26 -12,-11 -21,-24 -27,-38 -6,-14 -9,-29 -9,-45 0,-16 3,-32 9,-46 6,-14 15,-27 27,-38 12,-11 25,-20 40,-26 15,-6 31,-9 48,-9 17,0 32,3 48,9 15,6 29,15 40,26 12,11 21,24 27,38 6,14 9,30 9,46zm-124 66c18,0 32,-6 44,-19 11,-12 17,-28 17,-47 0,-19 -6,-35 -18,-48 -11,-12 -26,-19 -43,-19 -18,0 -32,7 -44,19 -11,13 -17,29 -17,48 0,19 6,35 17,47 11,13 26,19 44,19z"/>
    <g id="B_0">
     <path class="fil5" d="M2103 541c-2,1 -4,0 -6,-2 -4,-4 -8,-8 -12,-12 -2,-2 -3,-5 -2,-7 2,-6 3,-11 4,-17 1,-4 5,-6 9,-6 4,1 6,5 5,9 -1,4 -2,9 -3,13 4,4 7,7 10,10 3,3 2,8 -1,11 -1,1 -2,1 -4,1z"/>
     <path class="fil5" d="M1854 294l-35 4c-4,0 -8,-3 -8,-7 -1,-4 2,-7 6,-8l35 -3c4,-1 8,2 9,6 0,4 -3,8 -7,8zm70 -5l-1 0c-7,-1 -15,0 -22,0l-12 2c-4,0 -8,-3 -8,-7 0,-4 3,-8 7,-8l11 -1c8,-1 17,-1 25,-1 4,0 7,3 7,8 0,3 -3,6 -7,7zm-172 29c-2,0 -5,-1 -6,-3 -3,-3 -2,-8 1,-10 10,-9 22,-14 34,-17 4,-1 8,1 9,5 1,4 -1,8 -5,9 -11,3 -20,7 -29,14 -1,1 -2,1 -4,2zm241 -13c-2,0 -3,0 -4,0 -11,-5 -21,-9 -32,-12 -4,-1 -7,-5 -6,-9 1,-4 5,-6 9,-5 12,3 24,7 35,12 4,2 5,6 3,10 -1,2 -3,4 -5,4zm-273 73c-1,0 -1,0 -2,0 -4,0 -7,-4 -7,-8 2,-13 5,-25 11,-36 2,-4 7,-5 10,-3 4,2 5,6 3,10 -5,9 -8,20 -9,30 0,4 -3,7 -6,7zm329 -31c-2,0 -5,0 -6,-2 -5,-6 -11,-11 -16,-16 -3,-2 -6,-5 -9,-7 -4,-2 -4,-7 -2,-10 3,-4 7,-4 10,-2 4,3 7,5 10,8 6,5 12,11 18,17 2,3 2,8 -1,10 -1,1 -3,2 -4,2zm37 60c-4,0 -7,-2 -8,-5 -4,-10 -9,-21 -15,-30 -2,-4 -1,-8 3,-10 3,-2 8,-1 10,2 6,11 11,22 16,33 1,4 -1,8 -4,10 -1,0 -2,0 -2,0zm-361 41c-4,1 -7,-2 -8,-6l-4 -35c0,-4 3,-8 7,-8 4,-1 8,2 8,6l4 35c0,4 -3,8 -7,8zm373 28l0 0c-5,0 -8,-3 -8,-7 0,-7 0,-13 -1,-20 0,-4 -1,-9 -2,-14 -1,-4 2,-8 6,-9 4,0 8,2 9,6 1,5 1,11 2,16 1,7 1,14 1,21 0,4 -3,7 -7,7zm-365 43c-4,0 -8,-3 -9,-7l-3 -35c-1,-4 2,-8 6,-8 4,0 8,3 8,7l4 35c1,4 -2,7 -6,8zm7 70c-4,0 -8,-2 -8,-6l-4 -36c0,-4 3,-7 7,-8 4,0 7,3 8,7l3 35c1,4 -2,8 -6,8zm400 12c-3,1 -7,-1 -8,-4 -4,-11 -9,-21 -15,-31 -2,-3 -1,-8 3,-10 3,-2 8,-1 10,3 6,10 12,21 16,33 1,3 -1,8 -4,9 -1,0 -2,0 -2,0zm-393 58c-4,1 -7,-2 -8,-6l-4 -35c0,-4 3,-8 7,-8 4,-1 8,2 8,6l4 35c0,4 -3,8 -7,8zm405 12l-1 0c-4,0 -7,-4 -7,-8 0,-6 0,-13 -1,-20 0,-4 -1,-9 -2,-14 -1,-4 2,-7 6,-8 4,-1 8,2 9,6 1,5 1,10 2,15 0,7 1,14 1,21 0,4 -3,7 -7,8zm-397 59c-4,0 -8,-3 -8,-7l-4 -35c-1,-4 2,-8 6,-8 4,-1 8,2 8,6l4 36c1,4 -2,7 -6,8zm384 10c-1,0 -2,0 -3,-1 -4,-1 -6,-6 -4,-9 4,-11 7,-22 9,-33 1,-4 5,-7 9,-6 4,1 6,5 5,9 -2,12 -5,24 -10,35 -1,3 -3,4 -6,5zm-377 60c-3,0 -7,-2 -8,-6 0,-3 -1,-7 -1,-10l-3 -26c0,-4 3,-7 7,-8 4,0 7,3 8,7l2 25c1,3 1,6 2,9 1,4 -2,8 -6,9l-1 0zm340 -1c-2,0 -4,0 -6,-2 -3,-3 -3,-7 0,-10 4,-4 7,-9 11,-14 3,-4 6,-8 9,-13 2,-3 7,-5 10,-2 4,2 5,6 3,10 -3,5 -7,10 -10,14 -4,5 -8,10 -13,15 -1,1 -3,2 -4,2zm-300 57c-1,0 -3,0 -5,-1 -10,-7 -20,-15 -27,-26 -3,-3 -2,-8 2,-10 3,-3 7,-2 10,2 6,8 14,16 23,21 4,3 5,7 3,11 -2,2 -4,3 -6,3zm242 -16c-3,0 -6,-2 -7,-5 -2,-3 0,-8 4,-9 10,-5 20,-10 29,-17 3,-2 8,-2 10,2 3,3 2,8 -1,10 -10,7 -21,13 -32,18 -1,0 -2,1 -3,1zm-174 26l0 0c-3,0 -5,1 -8,1 -10,1 -19,2 -28,1 -4,-1 -7,-5 -7,-9 1,-4 4,-6 8,-6 8,1 16,1 25,-1 0,0 1,0 1,0 3,0 5,0 8,-1 4,0 7,3 8,7 0,4 -3,8 -7,8zm71 -7l-35 3c-5,1 -8,-2 -9,-6 0,-4 3,-8 7,-8l35 -4c4,0 8,3 8,7 1,4 -2,7 -6,8zm52 -6l-17 2c-4,0 -8,-2 -8,-7 -1,-4 2,-7 6,-8l18 -1c5,-1 11,-2 17,-3 4,-1 7,2 8,6 1,4 -1,8 -5,8 -6,2 -13,3 -19,3z"/>
     <path class="fil5" d="M1937 685l-18 2c-4,0 -7,-3 -8,-7l-3 -25c0,-4 3,-8 7,-8l18 -2c4,0 7,3 8,7 0,4 -3,7 -7,8l-10 1 1 10 10 -1c4,0 8,3 8,7 1,4 -2,7 -6,8z"/>
     <path class="fil5" d="M1975 681l-1 0c-4,0 -8,-3 -8,-7 0,-4 3,-7 7,-8l1 0c0,0 0,0 1,-1 1,-1 1,-3 1,-4 0,-2 -1,-4 -2,-5 -1,0 -1,0 -1,0l-1 0c-4,0 -8,-3 -8,-7 -1,-4 2,-7 6,-8l1 0c4,0 9,1 12,4 4,4 7,9 7,14 1,6 0,11 -4,15 -3,4 -6,6 -11,7z"/>
     <path class="fil5" d="M1916 487l-17 2c-4,1 -8,-2 -9,-6l-2 -25c-1,-4 2,-8 6,-8l18 -2c4,-1 8,2 8,6 0,4 -2,8 -7,8l-10 2 1 10 11 -1c4,-1 7,2 8,6 0,4 -3,8 -7,8z"/>
     <path class="fil5" d="M1796 791c-1,-3 -2,-7 -2,-12l-41 -394c-1,-4 -1,-8 0,-12 0,-2 0,-4 0,-5 1,-2 1,-3 1,-4 1,-1 1,-2 1,-3 1,-1 1,-2 1,-3 1,-1 1,-2 1,-2 1,-1 1,-2 1,-3 1,0 1,-1 2,-2 0,0 0,-1 1,-1 0,-1 0,-2 1,-2 0,-1 1,-1 1,-2 0,0 1,-1 1,-1 1,-1 1,-1 1,-2 1,0 1,0 2,-1 0,0 0,-1 1,-1 0,0 1,-1 1,-1 0,-1 1,-1 1,-1 1,-1 1,-1 1,-1 1,-1 1,-1 2,-1 0,-1 0,-1 1,-1 0,-1 1,-1 1,-1 0,0 1,-1 1,-1 1,0 1,0 1,-1 1,0 1,0 2,0 0,-1 1,-1 1,-1 0,0 1,0 1,-1 1,0 1,0 1,0 1,0 1,-1 2,-1 0,0 1,0 1,0 0,0 1,-1 1,-1 1,0 1,0 2,0 0,0 0,0 1,-1 0,0 1,0 1,0 0,0 1,0 1,0 1,0 1,0 2,0 0,-1 1,-1 1,-1 0,0 1,0 1,0l0 0 2 0 1 0 1 0 1 0 2 -1 1 0 1 0 2 0 1 0 1 0 2 0 1 -1 1 0 1 0 2 0 1 0 1 0 2 0 1 -1 1 0 2 0 1 0 1 0 1 0 2 0 1 0 1 -1 2 0 1 0 1 0 2 0 1 0 1 0 2 -1 1 0 1 0 1 0 2 0 1 0 1 0 2 0 1 -1 1 0 2 0 1 0 1 0 1 0 2 0 1 -1 1 0 2 0 1 0 1 0 2 0 1 0 1 -1 1 0 2 0 1 0 1 0 2 0 1 0 1 0 2 -1 1 0 1 0 1 0 2 0 1 0 1 0 2 -1 1 0 1 0 2 0 1 0 1 0 1 0 2 -1 1 0 1 0 2 0 1 0 1 0 2 0 1 0 0 -1 1 0 2 0 1 0 1 0c1,0 1,0 1,0l2 0 1 0 1 0c1,0 1,0 2,0l1 0 1 0 2 0 1 0 1 0 2 0 1 0 1 0 2 1 1 0 1 0 2 0 1 0 1 0 2 0 1 1 1 0 2 0 1 0 1 1 2 0 1 0 1 0 2 1 1 0 1 0 2 1 1 0 1 1 2 0 1 0 2 1 1 0 1 1 2 0 1 1 1 0 2 1 1 0 1 1c1,0 1,0 2,0l1 1c1,0 1,0 2,1l1 0c0,1 1,1 1,1l2 1c0,0 1,0 1,0 1,1 1,1 2,1l1 1 1 1c1,0 1,0 2,0l1 1c1,0 1,1 2,1l1 1c0,0 1,0 1,1 1,0 1,0 2,1 0,0 1,0 1,1 1,0 1,0 2,1 0,0 1,0 1,1 1,0 1,0 1,1 1,0 1,0 2,1 0,0 1,0 1,1 1,0 1,0 2,1 0,0 1,0 1,1 1,0 1,1 2,1 0,0 1,1 1,1 1,1 1,1 1,1l1 0c0,1 0,1 1,2 0,0 1,0 1,1 1,0 1,1 2,1 0,1 1,1 1,2 1,0 1,1 2,1 0,0 1,1 1,1 1,1 1,1 2,2 0,0 1,1 1,1 1,1 1,2 2,2 0,1 1,1 1,2 1,0 1,1 2,1 0,1 1,2 1,2 1,1 1,1 2,2 0,1 1,1 1,2 1,0 1,1 2,2 0,0 1,1 1,2 1,1 1,1 2,2 0,1 1,1 1,2 1,1 1,2 2,2 0,1 1,2 1,3 1,1 1,2 2,2 1,1 1,2 2,3 0,1 1,2 1,3 1,1 1,2 2,3 0,1 1,2 2,3 0,2 1,3 1,4 1,1 1,3 2,4 1,1 1,3 2,4 0,2 1,3 2,5 0,2 1,4 1,6 1,2 2,5 3,7 0,4 1,7 2,11 1,4 1,9 2,13 0,4 1,9 1,13 0,4 0,8 0,11 -1,3 -1,5 -1,8 0,2 0,4 -1,6 0,1 0,3 0,5 -1,1 -1,3 -1,4 -1,2 -1,3 -1,5 0,1 -1,2 -1,3 0,2 -1,3 -1,4 0,1 -1,2 -1,3 0,1 -1,2 -1,3 0,1 -1,2 -1,3 0,1 -1,2 -1,3 0,1 -1,2 -1,3 0,1 -1,2 -1,3 0,0 -1,1 -1,2 0,1 -1,1 -1,2l1 1 2 1 1 1 1 1c1,0 1,1 2,1 0,0 1,1 1,1 1,0 1,1 2,1 0,1 1,1 1,1 1,1 1,1 2,2l1 0 0 1c0,0 1,1 1,1 1,0 1,1 2,1 0,1 1,1 1,2 1,0 1,1 2,1 0,1 1,1 1,1 1,1 1,1 2,2 0,0 1,1 1,1 1,1 1,1 2,2 0,1 1,1 1,2 1,0 1,1 2,1 0,1 1,1 1,2 1,1 1,1 2,2 0,0 1,1 1,2 1,0 1,1 2,2 0,0 1,1 1,1 1,1 1,2 2,3 0,0 1,1 1,2 1,0 1,1 2,2 0,1 1,2 1,2 1,1 1,2 2,3 1,1 1,2 2,2 0,1 1,2 1,3 1,1 1,2 2,3 0,1 1,2 1,3 1,1 2,3 2,4 1,1 1,2 2,3 0,2 1,3 2,4 0,2 1,3 1,5 1,2 2,3 2,5 1,2 2,4 2,6 1,3 2,6 2,9 2,6 3,13 4,20 1,7 1,14 1,21 0,2 -1,5 -1,8 0,2 0,4 0,7 -1,1 -1,3 -1,5 0,2 -1,3 -1,5 0,1 -1,3 -1,4 0,2 0,3 -1,4 0,1 0,3 -1,4 0,1 0,2 -1,3 0,1 0,2 -1,3 0,1 0,2 -1,3 0,1 0,2 -1,3 0,1 0,2 -1,3 0,1 0,2 -1,3 0,1 0,1 -1,2 0,1 0,2 -1,3 0,0 -1,1 -1,2 0,1 -1,2 -1,2 0,1 -1,2 -1,2 0,1 -1,2 -1,3 -1,0 -1,1 -1,2 -1,0 -1,1 -1,2 -1,0 -1,1 -1,2 -1,0 -1,1 -2,1 0,1 0,2 -1,2 0,1 0,1 -1,2 0,1 -1,1 -1,2 0,0 -1,1 -1,1 -1,1 -1,2 -1,2 -1,1 -1,1 -1,2 -1,0 -1,1 -2,1 0,1 0,1 -1,2l0 0 -1 1c0,1 -1,1 -1,2 0,0 -1,1 -1,1 -1,1 -1,1 -1,2 -1,0 -1,1 -2,1 0,0 0,1 -1,1 0,1 -1,1 -1,2 0,0 -1,1 -1,1 0,0 -1,1 -1,1l-1 1c-1,1 -1,1 -2,2 0,0 0,0 -1,1 0,0 -1,1 -1,1l-1 1c-1,1 -1,1 -1,1l-2 1c0,1 0,1 -1,1 0,1 -1,1 -1,1 0,1 -1,1 -1,2 -1,0 -1,0 -1,1l-2 0 -1 1c0,1 -1,1 -1,1l-1 1 -2 1 -1 1 -1 1 -1 1 -1 1c-1,0 -1,0 -2,0l-1 1 -1 1 -1 1 -2 1 -1 0 -1 1c-1,0 -1,0 -1,1l-2 0 -1 1 -1 1 -1 0 -2 1 -1 1 -1 0 -1 1 -2 0 -1 1 -1 0 -1 1 -2 0 -1 1 -1 0 -1 1 -2 0 -1 1 -1 0 -2 1 -1 0 -1 0 -1 1 -2 0 -1 0 -1 1 -2 0 -1 0 -1 1 -1 0 -2 0 -1 0 -1 1 -2 0 -1 0 -1 0 -1 1 -2 0 -1 0 -1 0 -2 0 0 0 -1 0 -1 1 -2 0 -1 0 -1 0 -1 0 -2 0 -1 0 -1 0 -2 1 -1 0 -1 0 -2 0 -1 0 -1 0 -1 0 -2 1 -1 0 -1 0 -2 0 -1 0 -1 0 -2 0 -1 0 -1 1 -1 0 -2 0 -1 0 -1 0 -2 0 -1 0 -1 1 -2 0 -1 0 -1 0 -2 0 -1 0 -1 0 -1 1 -2 0 -1 0 -1 0 -2 0 -1 0 -1 0 -2 0 -1 1 -1 0 -1 0 -2 0 -1 0 -1 0 -2 0 -1 1 -1 0 -2 0 -1 0 -1 0 -1 0 -2 0 -1 1 -1 0 -2 0 -1 0 -1 0 -2 0 -1 0 -1 0 -1 1 -2 0 -1 0 -1 0 -2 0 -1 0 -1 0 -2 1 -1 0 -1 0 -1 0 -2 0 -1 0 -1 0 -2 1 -1 0 -1 0 -2 0 -1 0 -1 0 -2 0 -1 0 -1 1 -1 0 -2 0 -1 0 -1 0 0 0c-1,0 -1,0 -2,0 0,0 -1,0 -1,0 0,0 -1,0 -1,0 -1,0 -1,0 -2,0 0,0 0,0 -1,0 0,0 -1,0 -1,0l0 0c-1,0 -1,0 -2,0 0,1 0,1 -1,1 0,0 -1,0 -1,0 0,0 -1,0 -1,0 -1,0 -1,1 -2,1 0,0 -1,0 -1,0l-1 0 0 0c-1,0 -1,0 -2,0 0,0 0,0 -1,0 0,0 -1,0 -1,0 -1,0 -1,0 -1,0 -1,0 -1,0 -2,0 0,0 -1,0 -1,0 -1,0 -1,0 -1,0 -1,0 -1,0 -2,0 0,0 -1,0 -1,0 -1,-1 -1,-1 -1,-1 -1,0 -1,0 -2,0 0,0 -1,0 -1,0 -1,0 -1,0 -2,-1 0,0 0,0 -1,0 0,0 -1,0 -1,0 -1,-1 -1,-1 -2,-1 0,0 -1,0 -1,0 0,-1 -1,-1 -1,-1 -1,0 -1,0 -2,-1 0,0 -1,0 -1,0 -1,-1 -1,-1 -2,-1 0,0 0,-1 -1,-1 0,0 -1,-1 -1,-1 -1,0 -1,0 -2,-1 0,0 -1,0 -1,-1 -1,0 -1,-1 -2,-1 0,0 -1,-1 -1,-1 -1,-1 -1,-1 -2,-1 0,-1 0,-1 -1,-2 0,0 -1,-1 -1,-1 -1,-1 -1,-2 -2,-2 0,-1 -1,-1 -1,-2 -1,-1 -2,-2 -2,-2 -1,-1 -1,-2 -2,-3 0,-1 -1,-2 -1,-3 -1,-1 -1,-2 -2,-3 -1,-2 -1,-3 -2,-5zm220 -140c0,-2 -1,-4 -2,-7 -1,-1 -1,-2 -2,-4 0,-1 -1,-2 -1,-3 -1,-1 -1,-2 -2,-2 0,-1 -1,-2 -2,-3 0,0 -1,-1 -1,-1 -1,-1 -1,-2 -2,-2 0,-1 -1,-1 -1,-2 -1,0 -1,-1 -1,-1 -1,0 -1,-1 -1,-1l-1 0c0,-1 -1,-1 -1,-1 -1,-1 -1,-1 -2,-1 0,-1 -1,-1 -1,-1 -1,-1 -1,-1 -2,-1 0,-1 -1,-1 -1,-1 0,0 -1,-1 -1,-1 -1,0 -1,0 -2,0 0,-1 -1,-1 -1,-1 -1,0 -1,0 -2,-1 0,0 0,0 -1,0 0,0 -1,0 -1,-1 -1,0 -1,0 -2,0 0,0 -1,0 -1,0 0,0 -1,0 -1,-1 -1,0 -1,0 -2,0 0,0 -1,0 -1,0 0,0 -1,0 -1,0 -1,0 -1,0 -2,0 0,0 -1,0 -1,0 0,0 -1,0 -1,0 -1,0 -1,0 -2,0 0,0 0,0 -1,0 0,0 -1,0 -1,0l-1 0 -1 0 -1 0 -1 0 -1 0 -2 1 -1 0 -1 0 -2 0 -1 0 -1 0 -2 0 -1 0 -1 1 -1 0 -2 0 -1 0 -1 0 -2 0 -1 0 -1 1 -2 0 -1 0 -1 0 -1 0 -2 0 -1 0 0 0 -1 1 -2 0 -1 0 -1 0 -2 0 -1 0 -1 0 -2 0 -1 1 -1 0 -1 0 -2 0 -1 0 -1 0 -2 0 -1 1 -1 0 -2 0 -1 0 -1 0 -1 0 -2 0 -1 1 -1 0 -2 0 -1 0 -1 0 -2 0 -1 0 -1 0 -1 1 -2 0 -1 0 -1 0 -2 0 -1 0 -1 0 -2 1 -1 0 -1 0 -1 0 -2 0 -1 0 0 0 9 92 1 0 1 0 1 0 1 0 2 0 1 0 1 0 2 -1 1 0 1 0 2 0 1 0 1 0 1 0 2 -1 1 0 1 0 2 0 1 0 1 0 2 0 1 -1 1 0 1 0 2 0 1 0 1 0 2 0 1 0 1 -1 2 0 1 0 1 0 2 0 1 0 1 0 1 -1 2 0 1 0 1 0 2 0 1 0 1 0 2 0 1 -1 1 0 1 0 2 0 1 0 1 0 2 0 1 -1 1 0 2 0 1 0 1 0 1 0 2 0 1 -1 1 0 2 0 1 0 1 0 2 0 1 0 1 0 1 -1 2 0 1 0 1 0 0 0c1,0 1,0 2,0 0,0 1,0 1,0 0,0 1,-1 1,-1 1,0 1,0 2,0 0,0 0,0 1,0 0,0 1,-1 1,-1 1,0 1,0 1,0 1,0 1,0 2,-1 0,0 0,0 1,0 0,0 1,0 1,-1 1,0 1,0 1,0 1,0 1,-1 2,-1 0,0 1,0 1,-1 0,0 1,0 1,0 1,-1 1,-1 1,-1 1,0 1,-1 2,-1 0,0 0,-1 1,-1 0,0 1,-1 1,-1 0,0 1,-1 1,-1 1,0 1,-1 1,-1 1,-1 1,-1 2,-1 0,-1 0,-1 1,-2 0,0 1,-1 1,-1l0 -1c1,0 1,0 1,-1 1,0 1,-1 1,-1 1,-1 1,-2 1,-2 1,-1 1,-1 2,-2 0,-1 0,-2 1,-2 0,-1 0,-2 1,-3 0,-1 0,-2 1,-2 0,-2 0,-3 1,-4 0,-1 0,-3 1,-4 0,-3 0,-5 0,-8 0,-1 0,-3 0,-5 0,-1 -1,-3 -1,-5zm-55 -197c0,-2 -1,-4 -2,-5 0,-2 -1,-3 -1,-4 -1,-1 -1,-2 -2,-3 0,-1 -1,-1 -2,-2 0,-1 -1,-2 -1,-2 -1,-1 -1,-1 -2,-2 0,-1 -1,-1 -1,-2 -1,0 -1,-1 -2,-1 0,-1 -1,-1 -1,-1l0 -1c-1,0 -1,0 -1,-1 -1,0 -1,0 -2,-1 0,0 -1,0 -1,-1 -1,0 -1,0 -2,-1 0,0 -1,0 -1,-1 -1,0 -1,0 -2,0 0,-1 0,-1 -1,-1 0,0 -1,0 -1,-1 -1,0 -1,0 -2,0 0,0 -1,-1 -1,-1 0,0 -1,0 -1,0 -1,0 -1,0 -2,-1 0,0 -1,0 -1,0 -1,0 -1,0 -1,0 -1,0 -1,0 -2,-1 0,0 -1,0 -1,0 -1,0 -1,0 -1,0 -1,0 -1,0 -2,0 0,0 -1,0 -1,0 -1,0 -1,0 -1,0 -1,0 -1,0 -2,0 0,0 -1,0 -1,0 -1,0 -1,0 -1,0 -1,0 -1,0 -2,0l0 0 -1 0 -1 0 -2 0 -1 1 -1 0 -2 0 -1 0 -1 0 -1 0 -2 0 -1 1 -1 0 -2 0 -1 0 -1 0 -2 0 -1 0 -1 0 -1 1 -2 0 -1 0 -1 0 -2 0 -1 0 -1 0 -2 1 -1 0 -1 0 -1 0 -2 0 -1 0 -1 0 -2 1 -1 0 -1 0 -2 0 -1 0 -1 0 -1 0 -2 0 -1 1 -1 0 -2 0 0 0 10 92 0 0 1 0 2 0 1 0 1 -1 1 0 2 0 1 0 1 0 2 0 1 0 1 -1 2 0 1 0 1 0 1 0 2 0 1 0 1 0 2 -1 1 0 1 0 2 0 1 0 1 0 1 0 2 -1 1 0 1 0 2 0 1 0 1 0 2 0 1 -1 1 0 1 0 2 0 1 0 1 0 2 0 1 0 1 -1 2 0 1 0 0 0c0,0 1,0 1,0 1,0 1,0 2,0 0,0 0,0 1,0 0,-1 1,-1 1,-1 1,0 1,0 1,0 1,0 1,0 2,0 0,-1 1,-1 1,-1 0,0 1,0 1,0 1,0 1,-1 1,-1 1,0 1,0 2,0 0,0 1,-1 1,-1 0,0 1,0 1,-1 1,0 1,0 1,0 1,0 1,-1 2,-1 0,0 1,0 1,-1 0,0 1,0 1,-1 1,0 1,0 1,0 1,-1 1,-1 2,-1 0,-1 0,-1 1,-2 0,0 1,0 1,-1 0,0 1,0 1,-1 1,0 1,-1 1,-1 1,-1 1,-1 2,-1 0,-1 0,-1 0,-2l1 0c0,0 1,-1 1,-2 0,0 1,-1 1,-1 0,-1 1,-2 1,-2 1,-1 1,-2 1,-2 1,-1 1,-2 1,-3 1,0 1,-1 1,-2 1,-1 1,-2 1,-3 1,-2 1,-3 1,-4 1,-2 1,-4 1,-6 0,-3 0,-6 0,-8 0,-3 -1,-6 -2,-9z"/>
    </g>
    <g id="I_1">
     <path class="fil6" d="M2266 438c-2,0 -5,-1 -6,-3 -2,-3 0,-6 3,-7 12,-4 24,-6 36,-6l0 0c4,0 7,2 7,5 0,3 -3,6 -7,6 -10,0 -20,2 -30,5 -1,0 -2,0 -3,0zm93 16c-2,0 -4,-1 -6,-2 -7,-6 -15,-11 -24,-14 -4,-1 -5,-5 -4,-7 2,-3 6,-4 10,-3 11,4 21,9 29,16 3,3 2,6 -1,8 -1,1 -3,2 -4,2zm-136 22c-1,0 -2,0 -3,0 -3,-1 -5,-4 -4,-7 4,-9 10,-17 18,-24 3,-3 7,-3 10,-1 3,2 3,6 1,8 -7,6 -12,13 -16,20 -1,3 -3,4 -6,4zm157 26c-4,0 -7,-3 -7,-6l0 -4c0,-7 -1,-13 -4,-20 -1,-3 1,-6 4,-7 4,-1 8,1 9,4 4,7 5,15 5,23l0 4c0,3 -3,6 -7,6zm-162 26c-4,0 -7,-3 -7,-6l0 -26c0,-3 3,-5 7,-5 4,0 7,2 7,5l0 26c0,3 -3,6 -7,6zm162 26c-4,0 -7,-3 -7,-6l0 -26c0,-3 3,-5 7,-5 4,0 7,2 7,5l0 26c0,3 -3,6 -7,6zm-162 26c-4,0 -7,-2 -7,-6l0 -26c0,-3 3,-5 7,-5 4,0 7,2 7,5l0 26c0,4 -3,6 -7,6zm162 26c-4,0 -7,-3 -7,-6l0 -26c0,-3 3,-5 7,-5 4,0 7,2 7,5l0 26c0,3 -3,6 -7,6zm-162 26c-4,0 -7,-2 -7,-5l0 -26c0,-3 3,-6 7,-6 4,0 7,3 7,6l0 26c0,3 -3,5 -7,5zm162 26c-4,0 -7,-3 -7,-6l0 -26c0,-3 3,-5 7,-5 4,0 7,2 7,5l0 26c0,3 -3,6 -7,6zm-162 26c-4,0 -7,-2 -7,-5l0 -26c0,-3 3,-6 7,-6 4,0 7,3 7,6l0 26c0,3 -3,5 -7,5zm162 26c-4,0 -7,-3 -7,-6l0 -26c0,-3 3,-5 7,-5 4,0 7,2 7,5l0 26c0,3 -3,6 -7,6zm-162 26c-4,0 -7,-2 -7,-5l0 -26c0,-3 3,-6 7,-6 4,0 7,3 7,6l0 26c0,3 -3,5 -7,5zm162 26c-4,0 -7,-2 -7,-5l0 -26c0,-4 3,-6 7,-6 4,0 7,2 7,6l0 26c0,3 -3,5 -7,5zm-162 26c-4,0 -7,-2 -7,-5l0 -26c0,-3 3,-6 7,-6 4,0 7,3 7,6l0 26c0,3 -3,5 -7,5zm158 26c-1,0 -2,0 -2,-1 -4,-1 -6,-4 -5,-6 3,-7 4,-13 4,-20l0 -4c0,-3 3,-6 7,-6 4,0 7,3 7,6l0 4c0,8 -1,16 -4,23 -1,2 -4,4 -7,4zm-136 22c-2,0 -4,0 -6,-1 -8,-8 -14,-16 -18,-25 -1,-3 1,-6 4,-7 4,-1 8,1 9,4 4,7 9,14 16,20 2,2 2,6 -1,8 -1,1 -3,1 -4,1zm92 16c-2,0 -5,-2 -6,-4 -2,-2 0,-6 3,-7 10,-3 18,-8 25,-14 2,-2 7,-2 10,0 3,2 3,5 0,7 -8,7 -18,13 -29,17 -1,0 -2,1 -3,1zm-32 5l-1 0c-12,0 -24,-2 -35,-6 -4,-1 -6,-4 -4,-7 2,-3 6,-4 9,-3 10,4 20,5 30,5 4,0 7,3 7,6 0,3 -3,5 -6,5z"/>
     <path class="fil6" d="M2251 792c0,-1 0,-3 0,-5l0 -295c0,-2 0,-3 0,-5 0,-1 0,-1 0,-2 1,-1 1,-1 1,-2 0,0 0,0 0,-1 0,0 0,-1 1,-1 0,0 0,-1 0,-1 0,0 0,-1 0,-1 0,0 1,-1 1,-1 0,0 0,0 0,-1 0,0 0,0 0,0 1,-1 1,-1 1,-1 0,0 0,-1 0,-1l1 0 0 -1 0 -1 1 0 0 -1 1 0 0 -1 0 0 1 -1 0 0 0 -1 1 0 0 0 1 -1 0 0 0 -1 1 0 0 0 0 -1 1 0 0 -1 1 0 0 0 0 0 1 -1 0 0 0 0 1 -1 0 0 1 0 0 -1 0 0 1 0 0 0 0 -1 1 0 0 0 1 0 0 -1 0 0 1 0 0 0 1 0 0 -1 0 0 1 0 0 0 0 0 1 -1 0 0 1 0 0 0 0 0 1 -1 0 0 0 0 1 0 0 0 1 0 0 -1 0 0 1 0 0 0 0 0 1 0 0 0 1 -1 0 0 0 0 1 0 0 0 1 0 0 0 0 0 1 0 0 -1 0 0 1 0 0 0 1 0 0 0 0 0 1 0 0 0 0 0 1 0 0 0 1 -1 0 0 0 0 1 0 0 0 0 0 1 0 0 0 1 0 0 0 0 0 1 0 0 0 0 0 1 0 0 0 1 0 0 0 0 0 1 0 0 0 1 0 0 0 0 0 1 0 0 0 0 0 1 0 0 0 1 0 0 0 0 0 1 0 0 0 0 0 1 0 0 0 1 0 0 0 0 0 1 0 0 0 0 0 1 0 0 0 1 0 0 0 0 0 1 0 0 0 0 0 1 0 0 0 1 0 0 0 0 0 1 0 0 1 1 0 0 0 0 0 1 0 0 0 0 0 1 0 0 0 1 0 0 0 0 0 1 1 0 0 0 0 1 0 0 0 1 0 0 0 0 0 1 0 0 1 0 0 1 0 0 0 1 0 0 0 0 0 1 1 0 0 1 0 0 0 0 0 1 0 0 1 0 0 1 0 0 0 1 0 0 1 0 0 1 0 0 0 0 0 1 1 0 0 1 0 0 0 0 0 1 1 0 0 0 0 1 0 0 1 1 0 0 0 0 0 1 1 0 0 0 0 1 1 0 0 1 0 0 1 0 0 1 0 0 0 1 1 0 0 0 1 1 0 0 0 0 1 1 0 0 1 1 0 0 0 0 1 1 0 0 1 0 0 1 1 0 0c0,0 0,1 1,1l0 0 0 1c0,0 1,0 1,1l0 0c0,0 0,1 0,1 1,0 1,0 1,1 0,0 0,0 0,0 0,1 0,1 1,1 0,0 0,1 0,1 0,0 0,1 0,1 0,0 1,1 1,1 0,0 0,1 0,1 0,1 0,1 0,1 1,1 1,1 1,2 0,1 0,1 0,2 0,2 1,3 1,5l0 295c0,2 -1,4 -1,5 0,1 0,2 0,2 0,1 0,1 -1,2 0,0 0,1 0,1 0,0 0,1 0,1 0,0 -1,1 -1,1 0,0 0,1 0,1 0,0 0,1 0,1 -1,0 -1,0 -1,1 0,0 0,0 0,0l-1 1c0,0 0,1 0,1 0,0 0,0 0,1l-1 0 0 1 0 0c-1,0 -1,1 -1,1l0 0 -1 1 0 0 0 1 -1 0 0 1 0 0 -1 1 0 0 -1 0 0 1 0 0 -1 1 0 0 0 0 -1 1 0 0 -1 0 0 1 0 0 -1 0 0 0 -1 1 0 0 0 0 -1 1 0 0 0 0 -1 0 0 1 -1 0 0 0 0 0 -1 1 0 0 0 0 -1 0 0 1 -1 0 0 0 0 0 -1 0 0 1 0 0 -1 0 0 0 -1 0 0 0 0 1 -1 0 0 0 0 0 -1 0 0 0 -1 1 0 0 0 0 -1 0 0 0 -1 0 0 0 0 1 -1 0 0 0 0 0 -1 0 0 0 -1 0 0 0 0 1 -1 0 0 0 0 0 -1 0 0 0 -1 0 0 0 0 0 -1 0 0 0 0 0 -1 1 0 0 -1 0 0 0 0 0 -1 0 0 0 -1 0 0 0 0 0 -1 0 0 0 0 0 -1 0 0 0 -1 0 0 0 0 0 -1 0 0 0 0 0 -1 1 0 0 -1 0 0 0 0 0 -1 0 0 0 0 0 -1 0 0 0 -1 0 0 0 0 0 -1 0 0 0 0 0 -1 0 0 -1 -1 0 0 0 0 0 -1 0 0 0 -1 0 0 0 0 0 -1 0 0 0 0 0 -1 0 0 0 -1 0 0 0 0 0 -1 0 0 0 0 0 -1 0 0 -1 -1 0 0 0 0 0 -1 0 0 0 0 0 -1 0 0 0 -1 0 0 0 0 0 -1 -1 0 0 0 0 -1 0 0 0 -1 0 0 0 0 0 -1 -1 0 0 -1 0 0 0 0 0 -1 0 0 0 0 -1 -1 0 0 0 -1 0 0 0 0 0 -1 -1 0 0 0 0 -1 0 0 0 -1 0 0 -1 0 0 -1 0 0 0 0 0 -1 -1 0 0 -1 0 0 0 0 -1 -1 0 0 0 -1 0 0 -1 0 0 -1 0 0 0 0 -1 -1 0 0 0 -1 0 0 -1 0 0 -1 0 0 -1 0 0 -1 0 0 -1 -1 0 0 0 0 -1 -1 0 0 -1 0 0 -1 0 0 -1 -1 0 0 -1 0 0 -1 -1 0 0 0 -1 -1 0 0 -1 -1 0 0 -1 0 0 -1 -1c0,0 0,-1 0,-1 0,0 0,0 -1,-1 0,0 0,0 0,0 0,-1 0,-1 0,-1 0,0 -1,-1 -1,-1 0,0 0,-1 0,-1 0,0 0,-1 0,-1 -1,0 -1,-1 -1,-1 0,0 0,-1 0,-1 0,-1 0,-1 -1,-2 0,0 0,-1 0,-2z"/>
    </g>
   </g>
   <g>
    <path class="fil6" d="M2187 99l1 33c11,7 17,15 26,20 15,-3 29,-12 45,-16 30,-7 69,1 97,13 73,32 88,119 6,175 -30,19 -52,29 -90,27 -75,-4 -129,-67 -126,-109 4,-56 29,-21 -1,-88l-3 -5c-32,49 -48,70 -93,107 -7,6 -11,8 -19,14 -8,6 -12,10 -24,8 0,-12 16,-26 23,-40 24,-51 7,-94 35,-149 13,-26 33,-53 67,-57 37,-4 45,21 56,67z"/>
    <path class="fil7" d="M2230 250c-37,4 -42,-20 -46,-25 -2,-3 -7,-11 -15,0 -2,2 -4,9 -4,12 -2,19 16,43 28,57 23,28 57,47 101,33 -13,-10 -46,-21 -48,-38 24,-5 20,16 57,16 36,-1 20,-29 51,-24 0,14 -14,22 -20,33 25,1 59,-35 60,-62 1,-45 -1,-69 -60,-69 -34,0 -82,0 -100,32 -9,17 -4,16 -4,35zm47 24c24,1 18,-12 31,-20 4,6 8,23 35,8 13,-73 -46,-32 -46,-32 -15,3 -31,-13 -36,7 -4,19 6,28 16,37z"/>
    <path class="fil7" d="M2171 145l-9 10c-1,14 1,7 4,18 13,-1 22,-4 27,-15 8,-23 -11,-14 -22,-13z"/>
   </g>
   <g>
    <path class="fil3" d="M2886 189c-4,43 16,8 18,66 2,38 -3,43 17,71 14,18 24,31 46,43 16,8 45,24 64,24 26,0 29,-12 61,-23 16,-6 40,-29 48,-40 30,-40 19,-71 17,-109 -1,-23 7,-18 13,-33 -14,-27 -60,-63 -94,-73 -26,-9 -84,-5 -107,8 -13,6 -14,10 -18,26 -13,4 -27,13 -35,13 -13,2 -19,13 -30,18l0 9zm25 12c71,7 134,-54 163,-39 25,12 16,20 54,16 1,-14 -33,-31 -43,-36 -22,-12 -64,-13 -76,-7 -6,2 -10,13 -21,20 -31,18 -38,14 -60,23 -9,4 -20,9 -17,23zm27 111c7,5 2,-1 7,8 4,6 2,4 6,9 6,7 10,11 14,19 11,11 38,21 58,21 39,1 84,-27 103,-58 8,-12 20,-46 11,-66 -8,-20 -46,-45 -64,-58 -14,-9 -14,-8 -29,-1l-84 37c-21,10 -14,4 -33,4 -12,27 -3,63 11,85z"/>
    <path class="fil8" d="M2938 312c7,5 2,-1 7,8 4,6 2,4 6,9 6,7 10,11 14,19 11,11 38,21 58,21 39,1 84,-27 103,-58 8,-12 20,-46 11,-66 -8,-20 -46,-45 -64,-58 -14,-9 -14,-8 -29,-1l-84 37c-21,10 -14,4 -33,4 -12,27 -3,63 11,85z"/>
    <path class="fil8" d="M2911 201c71,7 134,-54 163,-39 25,12 16,20 54,16 1,-14 -33,-31 -43,-36 -22,-12 -64,-13 -76,-7 -6,2 -10,13 -21,20 -31,18 -38,14 -60,23 -9,4 -20,9 -17,23z"/>
    <path class="fil3" d="M3071 303c-16,-5 -32,10 -55,3 -11,-2 -13,-11 -23,-6 -19,7 12,41 46,33 16,-3 34,-11 32,-30z"/>
    <path class="fil3" d="M3021 268l8 -7c-4,-20 -9,-17 -27,-19 -5,6 -11,13 -8,20 4,9 3,4 7,6l20 0z"/>
    <path class="fil3" d="M3053 266c4,-2 4,6 6,-8 0,-4 -1,-9 -3,-12 -4,-6 -8,-6 -16,-5 -6,10 -12,17 2,26l11 -1z"/>
   </g>
  </g>
 </g>
</svg>
